<?xml version="1.0" encoding="UTF-8"?>
<!DOCTYPE svg PUBLIC "-//W3C//DTD SVG 1.1//EN" "http://www.w3.org/Graphics/SVG/1.1/DTD/svg11.dtd">
<svg xmlns="http://www.w3.org/2000/svg" version="1.1" width="500px" height="500px" style="shape-rendering:geometricPrecision; text-rendering:geometricPrecision; image-rendering:optimizeQuality; fill-rule:evenodd; clip-rule:evenodd" xmlns:xlink="http://www.w3.org/1999/xlink">
<g><path style="opacity:0.004" fill="#131313" d="M 226.5,-0.5 C 227.833,-0.5 229.167,-0.5 230.5,-0.5C 231.5,0.833333 232.5,0.833333 233.5,-0.5C 244.167,-0.5 254.833,-0.5 265.5,-0.5C 266.5,0.833333 267.5,0.833333 268.5,-0.5C 269.833,-0.5 271.167,-0.5 272.5,-0.5C 366.538,10.742 435.204,59.9087 478.5,147C 486.221,166.943 492.221,186.776 496.5,206.5C 495.897,208.452 496.23,210.452 497.5,212.5C 497.167,213.167 496.833,213.833 496.5,214.5C 497.219,220.267 498.219,225.934 499.5,231.5C 499.5,232.833 499.5,234.167 499.5,235.5C 498.167,237.833 498.167,240.167 499.5,242.5C 499.5,247.167 499.5,251.833 499.5,256.5C 498.167,258.5 498.167,260.5 499.5,262.5C 499.5,264.167 499.5,265.833 499.5,267.5C 495.296,312.477 480.463,354.144 455,392.5C 453.383,394.763 451.55,396.763 449.5,398.5C 447.983,398.511 446.816,399.177 446,400.5C 443.348,404.817 440.015,408.484 436,411.5C 435.833,411.167 435.667,410.833 435.5,410.5C 470.988,368.484 490.821,319.817 495,264.5C 495.667,251.833 495.667,239.167 495,226.5C 494.878,228.437 494.045,229.77 492.5,230.5C 491.766,229.292 491.433,227.959 491.5,226.5C 492.096,225.065 492.096,223.398 491.5,221.5C 492.5,221.5 493.5,221.5 494.5,221.5C 494.5,219.833 494.5,218.167 494.5,216.5C 493.5,216.5 492.5,216.5 491.5,216.5C 492.167,214.167 492.833,211.833 493.5,209.5C 492.5,209.5 491.5,209.5 490.5,209.5C 490.786,207.723 491.453,206.056 492.5,204.5C 491.777,202.218 491.443,199.884 491.5,197.5C 488.104,197.367 487.771,196.367 490.5,194.5C 489.5,193.833 488.5,193.167 487.5,192.5C 488.853,191.476 489.52,190.143 489.5,188.5C 488.448,188.649 487.448,188.483 486.5,188C 487.973,187.29 488.64,186.124 488.5,184.5C 484.944,184.725 484.61,183.892 487.5,182C 486.767,180.234 486.433,178.401 486.5,176.5C 482.162,176.378 481.828,176.045 485.5,175.5C 484.405,170.216 482.739,165.216 480.5,160.5C 464.169,116.911 437.336,80.9109 400,52.5C 399.667,52.8333 399.333,53.1667 399,53.5C 398.517,52.552 398.351,51.552 398.5,50.5C 397.022,50.762 395.689,50.4287 394.5,49.5C 386.365,44.2602 378.365,38.7602 370.5,33C 361.119,28.1515 351.453,23.9848 341.5,20.5C 338.425,17.2902 334.591,15.2902 330,14.5C 327.563,13.3458 325.063,12.8458 322.5,13C 323.056,13.3826 323.389,13.8826 323.5,14.5C 318.5,13.1667 313.5,11.8333 308.5,10.5C 308.167,9.16667 307.833,9.16667 307.5,10.5C 306.609,9.89022 305.609,9.55688 304.5,9.5C 304.158,8.66175 303.492,8.32842 302.5,8.5C 301.5,8.5 300.5,8.5 299.5,8.5C 298.833,7.16667 298.167,7.16667 297.5,8.5C 296.609,7.89022 295.609,7.55688 294.5,7.5C 293.833,6.16667 293.167,6.16667 292.5,7.5C 291.292,6.76589 289.959,6.43255 288.5,6.5C 288.5,6.16667 288.5,5.83333 288.5,5.5C 289.552,5.64945 290.552,5.48278 291.5,5C 287.527,4.00228 283.527,3.66894 279.5,4C 281.382,4.19808 283.048,4.69808 284.5,5.5C 281.721,5.72137 279.054,5.38803 276.5,4.5C 275.848,3.27493 274.681,2.60826 273,2.5C 270.813,2.78847 268.646,3.12181 266.5,3.5C 266.389,2.88258 266.056,2.38258 265.5,2C 254.833,1.33333 244.167,1.33333 233.5,2C 232.944,2.38258 232.611,2.88258 232.5,3.5C 230.354,3.12181 228.187,2.78847 226,2.5C 224.319,2.60826 223.152,3.27493 222.5,4.5C 217.14,5.33693 211.806,6.33693 206.5,7.5C 205.833,6.16667 205.167,6.16667 204.5,7.5C 203.391,7.55688 202.391,7.89022 201.5,8.5C 200.833,7.16667 200.167,7.16667 199.5,8.5C 198.391,8.55688 197.391,8.89022 196.5,9.5C 196.167,8.16667 195.833,8.16667 195.5,9.5C 194.041,9.43255 192.708,9.76589 191.5,10.5C 191.167,9.16667 190.833,9.16667 190.5,10.5C 184.5,12.1667 178.5,13.8333 172.5,15.5C 173.463,14.6365 173.463,13.9698 172.5,13.5C 164.681,15.6041 157.348,18.7708 150.5,23C 151.056,23.3826 151.389,23.8826 151.5,24.5C 147.213,25.9766 143.213,27.9766 139.5,30.5C 138.833,30.5 138.167,30.5 137.5,30.5C 131.787,30.9423 126.787,33.4423 122.5,38C 113.866,42.4573 106.033,47.2906 99,52.5C 96.8149,54.5402 94.3149,55.8736 91.5,56.5C 91.6495,57.552 91.4828,58.552 91,59.5C 57.958,86.9642 33.7913,120.631 18.5,160.5C 15.3686,168.734 12.7019,177.234 10.5,186C 11.0223,186.95 11.689,187.784 12.5,188.5C 11.3839,188.402 10.3839,188.902 9.5,190C 12.4566,192.184 12.1233,193.351 8.5,193.5C 8.25548,197.237 7.58882,200.903 6.5,204.5C 6.87771,206.135 7.54437,207.635 8.5,209C 8.33333,209.5 8.16667,210 8,210.5C 6.76838,207.77 5.93504,207.937 5.5,211C 6.41806,213.086 7.08473,215.253 7.5,217.5C 6.5,217.5 5.5,217.5 4.5,217.5C 3.85544,220.547 4.85544,222.713 7.5,224C 6.66337,225.011 6.33003,226.178 6.5,227.5C 4.29008,228.455 3.95675,229.955 5.5,232C 3.07279,233.554 3.07279,234.721 5.5,235.5C 2.77145,260.861 4.60479,285.861 11,310.5C 33.5198,388.687 82.0198,444.187 156.5,477C 176.411,484.061 196.744,489.394 217.5,493C 225.538,493.707 233.538,494.541 241.5,495.5C 243.936,494.109 244.602,494.609 243.5,497C 237.929,497.443 232.429,496.943 227,495.5C 223.595,496.357 220.261,496.023 217,494.5C 216.586,494.957 216.086,495.291 215.5,495.5C 211.807,494.248 208.14,493.248 204.5,492.5C 203.583,493.127 202.583,493.461 201.5,493.5C 145.033,483.465 97.5334,456.132 59,411.5C 26.3772,371.873 7.54382,328.873 2.5,282.5C 1.78112,276.733 0.781118,271.066 -0.5,265.5C -0.5,263.167 -0.5,260.833 -0.5,258.5C 0.833333,251.833 0.833333,245.167 -0.5,238.5C -0.5,236.5 -0.5,234.5 -0.5,232.5C 0.317269,230.169 0.983936,227.669 1.5,225C 8.24326,151.451 42.9099,91.118 105.5,44C 143.989,18.3937 184.322,3.5604 226.5,-0.5 Z"/></g>
<g><path style="opacity:1" fill="#acacac" d="M 370.5,59.5 C 384.301,67.9584 396.635,78.2917 407.5,90.5C 404.887,91.0955 404.887,91.9288 407.5,93C 406.833,93.6667 406.167,94.3333 405.5,95C 405.057,96.5185 405.724,97.6852 407.5,98.5C 405.5,99.1667 403.5,99.8333 401.5,100.5C 402.991,103.398 403.657,106.231 403.5,109C 402.551,109.617 401.718,109.451 401,108.5C 400.667,109.5 400.333,110.5 400,111.5C 399.71,109.956 399.044,108.623 398,107.5C 397.316,108.784 397.483,109.951 398.5,111C 396.84,112.488 395.84,114.321 395.5,116.5C 390.436,109.929 384.769,103.763 378.5,98C 371.931,93.2484 365.265,88.7484 358.5,84.5C 359.058,83.2101 360.058,82.3768 361.5,82C 359.595,81.1739 359.261,80.0072 360.5,78.5C 361.192,79.0253 361.692,79.6919 362,80.5C 363.167,79.3333 364.333,78.1667 365.5,77C 364.167,76 364.167,75 365.5,74C 361.5,73.3333 361.5,72.6667 365.5,72C 362.142,70.1649 361.809,67.9982 364.5,65.5C 365.086,65.7093 365.586,66.0426 366,66.5C 364.471,62.2708 365.971,59.9374 370.5,59.5 Z"/></g>
<g><path style="opacity:1" fill="#ababab" d="M 139.5,52.5 C 141.432,55.8702 141.432,59.2035 139.5,62.5C 140.687,63.5195 141.687,64.6861 142.5,66C 141.934,69.0521 141.601,72.0521 141.5,75C 142.513,77.0239 143.846,78.8572 145.5,80.5C 144.975,81.1924 144.308,81.6924 143.5,82C 144.126,82.7504 144.626,83.5838 145,84.5C 146.398,83.9491 147.732,83.6158 149,83.5C 149.333,85.0468 148.833,86.3801 147.5,87.5C 148.376,88.2508 149.376,88.7508 150.5,89C 149.167,90.6373 147.834,91.4707 146.5,91.5C 148.162,92.3267 149.495,93.4933 150.5,95C 153.167,95.3333 155.833,95.6667 158.5,96C 160.208,97.0623 160.874,98.229 160.5,99.5C 165.189,96.8474 165.523,97.3474 161.5,101C 163.33,103.661 165.663,105.828 168.5,107.5C 169.641,108.425 169.641,109.259 168.5,110C 170.301,110.317 170.634,110.984 169.5,112C 171.807,112.271 172.974,111.105 173,108.5C 173.216,110.384 173.883,112.051 175,113.5C 175.875,111.487 177.209,111.487 179,113.5C 179.347,111.82 180.347,110.82 182,110.5C 184.155,111.579 186.155,112.913 188,114.5C 189.333,111.833 190.667,111.833 192,114.5C 192.667,111.833 193.333,111.833 194,114.5C 195,113.833 196,113.167 197,112.5C 198,113.5 199,114.5 200,115.5C 203.494,115.566 206.827,115.233 210,114.5C 210.333,115.167 210.667,115.833 211,116.5C 212.137,115.636 213.47,114.636 215,113.5C 216.402,115.973 217.902,115.973 219.5,113.5C 221.042,114.747 222.542,114.747 224,113.5C 226.333,114.5 228.667,115.5 231,116.5C 232.085,114.343 233.251,114.176 234.5,116C 233.663,117.011 233.33,118.178 233.5,119.5C 227.966,134.285 225.633,149.619 226.5,165.5C 225.51,159.69 225.177,153.69 225.5,147.5C 222.859,148.263 220.192,148.43 217.5,148C 218.696,147.346 218.696,146.846 217.5,146.5C 214.947,149.044 212.447,149.044 210,146.5C 209.667,147.167 209.333,147.833 209,148.5C 208.612,147.572 207.945,146.905 207,146.5C 205.989,146.892 205.489,147.559 205.5,148.5C 204.167,147.167 202.833,147.167 201.5,148.5C 200.304,148.154 200.304,147.654 201.5,147C 199.538,147.141 197.704,146.974 196,146.5C 194.278,146.611 194.112,147.111 195.5,148C 193.005,148.157 190.672,148.324 188.5,148.5C 184.237,145.941 179.903,145.941 175.5,148.5C 174.353,148.182 173.519,147.516 173,146.5C 171.192,146.888 169.525,146.888 168,146.5C 166.477,148.62 164.644,148.953 162.5,147.5C 160.259,148.032 158.759,149.365 158,151.5C 157.667,150.833 157.333,150.167 157,149.5C 155.467,149.944 153.967,150.277 152.5,150.5C 151.808,149.975 151.308,149.308 151,148.5C 149.684,149.974 148.684,151.641 148,153.5C 145.943,149.831 143.277,149.498 140,152.5C 139.167,152.333 138.333,152.167 137.5,152C 139.26,151.035 139.594,149.868 138.5,148.5C 137.522,148.977 136.689,149.643 136,150.5C 134.887,149.289 133.72,149.289 132.5,150.5C 131.205,149.902 129.872,149.402 128.5,149C 130.002,148.417 131.335,147.584 132.5,146.5C 131.108,143.839 129.274,141.506 127,139.5C 126.667,139.833 126.333,140.167 126,140.5C 124.933,139.809 123.766,139.309 122.5,139C 123.167,138.667 123.833,138.333 124.5,138C 121.965,135.742 121.632,133.575 123.5,131.5C 122.471,131.704 121.471,131.204 120.5,130C 121.554,128.612 121.72,127.112 121,125.5C 119.038,125.031 117.205,125.697 115.5,127.5C 113.064,126.499 113.064,125.332 115.5,124C 115.041,121.645 114.208,119.479 113,117.5C 112.667,118.167 112.333,118.833 112,119.5C 110.933,118.057 109.766,116.724 108.5,115.5C 109.274,114.289 110.107,114.289 111,115.5C 112.188,114.437 112.688,113.103 112.5,111.5C 111.5,111.5 110.5,111.5 109.5,111.5C 109.67,110.178 109.337,109.011 108.5,108C 109.308,107.692 109.975,107.192 110.5,106.5C 108.684,104.559 106.684,103.892 104.5,104.5C 107.133,103.682 108.3,102.016 108,99.5C 107.586,99.9574 107.086,100.291 106.5,100.5C 104.86,98.1612 102.86,97.3279 100.5,98C 101.167,97 101.833,96 102.5,95C 102.201,93.6796 102.034,92.1796 102,90.5C 101.667,90.8333 101.333,91.1667 101,91.5C 100.303,88.3084 98.47,86.3084 95.5,85.5C 104.167,77.8333 112.833,70.1667 121.5,62.5C 127.245,58.7657 133.245,55.4323 139.5,52.5 Z"/></g>
<g><path style="opacity:1" fill="#b3b3b3" d="M 327.5,37.5 C 331.57,38.3559 335.57,39.5226 339.5,41C 349.621,46.2896 359.621,51.7896 369.5,57.5C 369.833,58.1667 370.167,58.8333 370.5,59.5C 365.971,59.9374 364.471,62.2708 366,66.5C 365.586,66.0426 365.086,65.7093 364.5,65.5C 361.809,67.9982 362.142,70.1649 365.5,72C 361.5,72.6667 361.5,73.3333 365.5,74C 364.167,75 364.167,76 365.5,77C 364.333,78.1667 363.167,79.3333 362,80.5C 361.692,79.6919 361.192,79.0253 360.5,78.5C 359.261,80.0072 359.595,81.1739 361.5,82C 360.058,82.3768 359.058,83.2101 358.5,84.5C 345.654,78.6048 332.321,74.6048 318.5,72.5C 316.958,71.8365 315.291,71.1698 313.5,70.5C 314.262,70.0894 315.262,69.9227 316.5,70C 316.89,66.4707 316.89,63.4707 316.5,61C 317.572,59.7163 318.905,59.3829 320.5,60C 317.157,57.068 317.49,54.2347 321.5,51.5C 320.167,50.5 320.167,49.5 321.5,48.5C 317.968,46.2754 317.968,44.4421 321.5,43C 320.5,42.6667 319.5,42.3333 318.5,42C 320.592,41.0475 320.925,39.7141 319.5,38C 320.872,37.5983 322.205,37.0983 323.5,36.5C 324.192,37.0253 324.692,37.6919 325,38.5C 325.671,37.7476 326.504,37.4142 327.5,37.5 Z"/></g>
<g><path style="opacity:1" fill="#b2b2b2" d="M 249.5,96.5 C 242.934,103.294 237.601,110.961 233.5,119.5C 233.33,118.178 233.663,117.011 234.5,116C 233.251,114.176 232.085,114.343 231,116.5C 228.667,115.5 226.333,114.5 224,113.5C 222.542,114.747 221.042,114.747 219.5,113.5C 217.902,115.973 216.402,115.973 215,113.5C 213.47,114.636 212.137,115.636 211,116.5C 210.667,115.833 210.333,115.167 210,114.5C 206.827,115.233 203.494,115.566 200,115.5C 199,114.5 198,113.5 197,112.5C 196,113.167 195,113.833 194,114.5C 193.333,111.833 192.667,111.833 192,114.5C 190.667,111.833 189.333,111.833 188,114.5C 186.155,112.913 184.155,111.579 182,110.5C 180.347,110.82 179.347,111.82 179,113.5C 177.209,111.487 175.875,111.487 175,113.5C 173.883,112.051 173.216,110.384 173,108.5C 172.974,111.105 171.807,112.271 169.5,112C 170.634,110.984 170.301,110.317 168.5,110C 169.641,109.259 169.641,108.425 168.5,107.5C 165.663,105.828 163.33,103.661 161.5,101C 165.523,97.3474 165.189,96.8474 160.5,99.5C 160.874,98.229 160.208,97.0623 158.5,96C 155.833,95.6667 153.167,95.3333 150.5,95C 149.495,93.4933 148.162,92.3267 146.5,91.5C 147.834,91.4707 149.167,90.6373 150.5,89C 149.376,88.7508 148.376,88.2508 147.5,87.5C 148.833,86.3801 149.333,85.0468 149,83.5C 147.732,83.6158 146.398,83.9491 145,84.5C 144.626,83.5838 144.126,82.7504 143.5,82C 144.308,81.6924 144.975,81.1924 145.5,80.5C 143.846,78.8572 142.513,77.0239 141.5,75C 141.601,72.0521 141.934,69.0521 142.5,66C 141.687,64.6861 140.687,63.5195 139.5,62.5C 141.432,59.2035 141.432,55.8702 139.5,52.5C 141.094,51.017 142.76,49.517 144.5,48C 155.016,42.4118 166.016,37.9118 177.5,34.5C 180.199,34.5339 182.699,33.8672 185,32.5C 185.309,33.7659 185.809,34.9326 186.5,36C 185.167,37.3333 185.167,38.6667 186.5,40C 185.5,40.3333 184.5,40.6667 183.5,41C 185.98,42.9104 187.647,45.4104 188.5,48.5C 187.737,49.7193 186.737,50.7193 185.5,51.5C 185.938,52.5063 186.604,52.5063 187.5,51.5C 188.298,53.0777 188.798,54.7444 189,56.5C 191.734,57.3617 191.901,58.195 189.5,59C 191.891,59.6914 191.891,60.6914 189.5,62C 190.257,63.5122 191.257,64.8455 192.5,66C 191.376,66.2492 190.376,66.7492 189.5,67.5C 190.301,70.1334 191.967,71.9667 194.5,73C 193.66,74.6665 194.16,74.8331 196,73.5C 196.167,73.8333 196.333,74.1667 196.5,74.5C 195.624,75.2508 194.624,75.7508 193.5,76C 194.289,79.0969 195.456,79.2636 197,76.5C 197.833,77.3333 198.667,78.1667 199.5,79C 197.905,78.3829 196.572,78.7163 195.5,80C 196.325,81.6883 197.325,81.8549 198.5,80.5C 199.73,83.4322 201.897,85.4322 205,86.5C 205.772,86.3552 206.439,86.0219 207,85.5C 211.083,86.6424 214.916,88.309 218.5,90.5C 219.5,89.1667 220.5,89.1667 221.5,90.5C 222.167,89.8333 222.833,89.1667 223.5,88.5C 225.79,89.7418 227.623,91.4084 229,93.5C 231.527,88.8276 233.527,88.8276 235,93.5C 236.402,91.0266 237.902,91.0266 239.5,93.5C 240.833,92.1667 242.167,92.1667 243.5,93.5C 243.833,92.8333 244.167,92.1667 244.5,91.5C 245.251,92.376 245.751,93.376 246,94.5C 247.785,93.6462 248.951,94.3129 249.5,96.5 Z"/></g>
<g><path style="opacity:0.998" fill="#f3f3f3" d="M 353.5,27.5 C 360.757,30.4617 367.757,33.9617 374.5,38C 388.522,46.8547 401.522,57.0213 413.5,68.5C 413.64,70.1238 412.973,71.2904 411.5,72C 416.047,75.7118 420.047,79.8784 423.5,84.5C 425.399,89.3944 427.732,94.0611 430.5,98.5C 429.814,100.064 429.981,101.731 431,103.5C 432.022,104.354 432.855,105.354 433.5,106.5C 433.593,110.113 433.593,113.78 433.5,117.5C 430.953,115.687 428.953,113.354 427.5,110.5C 426.675,109.614 425.675,109.281 424.5,109.5C 419.917,102.247 414.25,95.914 407.5,90.5C 396.635,78.2917 384.301,67.9584 370.5,59.5C 370.167,58.8333 369.833,58.1667 369.5,57.5C 373.344,58.0888 376.678,59.7555 379.5,62.5C 380.167,62.1667 380.833,61.8333 381.5,61.5C 375.469,55.6833 370.636,49.6833 367,43.5C 366.333,44.1667 365.667,44.8333 365,45.5C 364.735,43.8374 365.235,42.3374 366.5,41C 365.107,39.8289 364.273,38.3289 364,36.5C 363.333,40.5 362.667,40.5 362,36.5C 361.282,37.4506 360.449,37.6172 359.5,37C 358.672,36.0853 357.672,35.4186 356.5,35C 357.833,34.3333 357.833,33.6667 356.5,33C 355.167,32.3333 353.833,31.6667 352.5,31C 353.167,30.6667 353.833,30.3333 354.5,30C 353.748,29.3292 353.414,28.4959 353.5,27.5 Z"/></g>
<g><path style="opacity:1" fill="#bababa" d="M 327.5,37.5 C 326.504,37.4142 325.671,37.7476 325,38.5C 324.692,37.6919 324.192,37.0253 323.5,36.5C 322.205,37.0983 320.872,37.5983 319.5,38C 320.925,39.7141 320.592,41.0475 318.5,42C 319.5,42.3333 320.5,42.6667 321.5,43C 317.968,44.4421 317.968,46.2754 321.5,48.5C 320.167,49.5 320.167,50.5 321.5,51.5C 317.49,54.2347 317.157,57.068 320.5,60C 318.905,59.3829 317.572,59.7163 316.5,61C 316.89,63.4707 316.89,66.4707 316.5,70C 315.262,69.9227 314.262,70.0894 313.5,70.5C 315.291,71.1698 316.958,71.8365 318.5,72.5C 291.896,70.5882 268.896,78.5882 249.5,96.5C 248.951,94.3129 247.785,93.6462 246,94.5C 245.751,93.376 245.251,92.376 244.5,91.5C 244.167,92.1667 243.833,92.8333 243.5,93.5C 242.167,92.1667 240.833,92.1667 239.5,93.5C 237.902,91.0266 236.402,91.0266 235,93.5C 233.527,88.8276 231.527,88.8276 229,93.5C 227.623,91.4084 225.79,89.7418 223.5,88.5C 222.833,89.1667 222.167,89.8333 221.5,90.5C 220.5,89.1667 219.5,89.1667 218.5,90.5C 214.916,88.309 211.083,86.6424 207,85.5C 206.439,86.0219 205.772,86.3552 205,86.5C 201.897,85.4322 199.73,83.4322 198.5,80.5C 197.325,81.8549 196.325,81.6883 195.5,80C 196.572,78.7163 197.905,78.3829 199.5,79C 198.667,78.1667 197.833,77.3333 197,76.5C 195.456,79.2636 194.289,79.0969 193.5,76C 194.624,75.7508 195.624,75.2508 196.5,74.5C 196.333,74.1667 196.167,73.8333 196,73.5C 194.16,74.8331 193.66,74.6665 194.5,73C 191.967,71.9667 190.301,70.1334 189.5,67.5C 190.376,66.7492 191.376,66.2492 192.5,66C 191.257,64.8455 190.257,63.5122 189.5,62C 191.891,60.6914 191.891,59.6914 189.5,59C 191.901,58.195 191.734,57.3617 189,56.5C 188.798,54.7444 188.298,53.0777 187.5,51.5C 186.604,52.5063 185.938,52.5063 185.5,51.5C 186.737,50.7193 187.737,49.7193 188.5,48.5C 187.647,45.4104 185.98,42.9104 183.5,41C 184.5,40.6667 185.5,40.3333 186.5,40C 185.167,38.6667 185.167,37.3333 186.5,36C 185.809,34.9326 185.309,33.7659 185,32.5C 182.699,33.8672 180.199,34.5339 177.5,34.5C 227.817,16.3315 277.817,17.3315 327.5,37.5 Z"/></g>
<g><path style="opacity:0.016" fill="#505050" d="M 341.5,20.5 C 340.5,20.5 339.5,20.5 338.5,20.5C 333.73,18.1277 328.73,16.1277 323.5,14.5C 323.389,13.8826 323.056,13.3826 322.5,13C 325.063,12.8458 327.563,13.3458 330,14.5C 334.591,15.2902 338.425,17.2902 341.5,20.5 Z"/></g>
<g><path style="opacity:0.016" fill="#585858" d="M 172.5,15.5 C 165.22,17.9241 158.22,20.9241 151.5,24.5C 151.389,23.8826 151.056,23.3826 150.5,23C 157.348,18.7708 164.681,15.6041 172.5,13.5C 173.463,13.9698 173.463,14.6365 172.5,15.5 Z"/></g>
<g><path style="opacity:0.239" fill="#d8d8d8" d="M 297.5,8.5 C 298.167,8.5 298.833,8.5 299.5,8.5C 300.5,8.5 301.5,8.5 302.5,8.5C 302.842,9.33825 303.508,9.67158 304.5,9.5C 305.609,9.55688 306.609,9.89022 307.5,10.5C 307.833,10.5 308.167,10.5 308.5,10.5C 313.5,11.8333 318.5,13.1667 323.5,14.5C 328.73,16.1277 333.73,18.1277 338.5,20.5C 324.772,16.4769 311.105,12.4769 297.5,8.5 Z"/></g>
<g><path style="opacity:0.016" fill="#4e4e4e" d="M 288.5,5.5 C 287.833,5.5 287.5,5.83333 287.5,6.5C 286.391,6.44312 285.391,6.10978 284.5,5.5C 283.048,4.69808 281.382,4.19808 279.5,4C 283.527,3.66894 287.527,4.00228 291.5,5C 290.552,5.48278 289.552,5.64945 288.5,5.5 Z"/></g>
<g><path style="opacity:0.999" fill="#fafafa" d="M 259.5,3.5 C 261.833,3.5 264.167,3.5 266.5,3.5C 269.625,4.47944 272.958,4.81277 276.5,4.5C 279.054,5.38803 281.721,5.72137 284.5,5.5C 285.391,6.10978 286.391,6.44312 287.5,6.5C 287.833,6.5 288.167,6.5 288.5,6.5C 289.959,6.43255 291.292,6.76589 292.5,7.5C 293.167,7.5 293.833,7.5 294.5,7.5C 295.609,7.55688 296.609,7.89022 297.5,8.5C 311.105,12.4769 324.772,16.4769 338.5,20.5C 339.5,20.5 340.5,20.5 341.5,20.5C 345.195,23.3478 349.195,25.6811 353.5,27.5C 353.414,28.4959 353.748,29.3292 354.5,30C 353.833,30.3333 353.167,30.6667 352.5,31C 353.833,31.6667 355.167,32.3333 356.5,33C 357.833,33.6667 357.833,34.3333 356.5,35C 357.672,35.4186 358.672,36.0853 359.5,37C 360.449,37.6172 361.282,37.4506 362,36.5C 362.667,40.5 363.333,40.5 364,36.5C 364.273,38.3289 365.107,39.8289 366.5,41C 365.235,42.3374 364.735,43.8374 365,45.5C 365.667,44.8333 366.333,44.1667 367,43.5C 370.636,49.6833 375.469,55.6833 381.5,61.5C 380.833,61.8333 380.167,62.1667 379.5,62.5C 376.678,59.7555 373.344,58.0888 369.5,57.5C 359.621,51.7896 349.621,46.2896 339.5,41C 335.57,39.5226 331.57,38.3559 327.5,37.5C 277.817,17.3315 227.817,16.3315 177.5,34.5C 166.016,37.9118 155.016,42.4118 144.5,48C 142.76,49.517 141.094,51.017 139.5,52.5C 133.245,55.4323 127.245,58.7657 121.5,62.5C 120.178,62.33 119.011,62.6634 118,63.5C 117.217,61.5665 117.717,60.0665 119.5,59C 119.043,58.586 118.709,58.086 118.5,57.5C 119.5,56.6667 120.5,55.8333 121.5,55C 120.366,53.984 120.699,53.3173 122.5,53C 122.043,52.586 121.709,52.086 121.5,51.5C 123.167,50.1667 124.833,48.8333 126.5,47.5C 128.633,40.867 132.967,36.367 139.5,34C 138.316,32.8545 138.316,31.6879 139.5,30.5C 143.213,27.9766 147.213,25.9766 151.5,24.5C 158.22,20.9241 165.22,17.9241 172.5,15.5C 178.5,13.8333 184.5,12.1667 190.5,10.5C 190.833,10.5 191.167,10.5 191.5,10.5C 192.708,9.76589 194.041,9.43255 195.5,9.5C 195.833,9.5 196.167,9.5 196.5,9.5C 197.391,8.89022 198.391,8.55688 199.5,8.5C 200.167,8.5 200.833,8.5 201.5,8.5C 202.391,7.89022 203.391,7.55688 204.5,7.5C 205.167,7.5 205.833,7.5 206.5,7.5C 211.806,6.33693 217.14,5.33693 222.5,4.5C 234.83,4.06685 247.163,3.73351 259.5,3.5 Z"/></g>
<g><path style="opacity:0.015" fill="#6b6b6b" d="M 276.5,4.5 C 272.958,4.81277 269.625,4.47944 266.5,3.5C 268.646,3.12181 270.813,2.78847 273,2.5C 274.681,2.60826 275.848,3.27493 276.5,4.5 Z"/></g>
<g><path style="opacity:0.016" fill="#9e9e9e" d="M 232.5,3.5 C 241.628,2.20972 250.628,2.20972 259.5,3.5C 247.163,3.73351 234.83,4.06685 222.5,4.5C 223.152,3.27493 224.319,2.60826 226,2.5C 228.187,2.78847 230.354,3.12181 232.5,3.5 Z"/></g>
<g><path style="opacity:0.016" fill="#6b6b6b" d="M 266.5,3.5 C 264.167,3.5 261.833,3.5 259.5,3.5C 250.628,2.20972 241.628,2.20972 232.5,3.5C 232.611,2.88258 232.944,2.38258 233.5,2C 244.167,1.33333 254.833,1.33333 265.5,2C 266.056,2.38258 266.389,2.88258 266.5,3.5 Z"/></g>
<g><path style="opacity:0.997" fill="#efefef" d="M 137.5,30.5 C 138.167,30.5 138.833,30.5 139.5,30.5C 138.316,31.6879 138.316,32.8545 139.5,34C 132.967,36.367 128.633,40.867 126.5,47.5C 124.833,48.8333 123.167,50.1667 121.5,51.5C 121.709,52.086 122.043,52.586 122.5,53C 120.699,53.3173 120.366,53.984 121.5,55C 120.5,55.8333 119.5,56.6667 118.5,57.5C 118.709,58.086 119.043,58.586 119.5,59C 117.717,60.0665 117.217,61.5665 118,63.5C 119.011,62.6634 120.178,62.33 121.5,62.5C 112.833,70.1667 104.167,77.8333 95.5,85.5C 81.5068,99.1472 69.8402,114.481 60.5,131.5C 57.5968,135.63 54.9301,139.963 52.5,144.5C 51.2502,144.577 50.4169,145.244 50,146.5C 49.3623,145.391 48.8623,144.225 48.5,143C 49.2577,139.775 49.591,136.609 49.5,133.5C 48.6171,132.452 47.9504,131.285 47.5,130C 48.2893,129.454 49.2893,128.787 50.5,128C 49.3279,127.581 48.3279,126.915 47.5,126C 49.7575,123.885 50.7575,121.552 50.5,119C 51.4441,116.278 52.7775,113.778 54.5,111.5C 53.8333,111.167 53.1667,110.833 52.5,110.5C 54.9876,107.938 56.6542,104.938 57.5,101.5C 75.7221,76.1143 98.0554,54.9476 124.5,38C 129.002,35.6364 133.335,33.1364 137.5,30.5 Z"/></g>
<g><path style="opacity:1" fill="#fdfdfd" d="M 318.5,72.5 C 332.321,74.6048 345.654,78.6048 358.5,84.5C 365.265,88.7484 371.931,93.2484 378.5,98C 384.769,103.763 390.436,109.929 395.5,116.5C 403.85,127.787 410.35,140.12 415,153.5C 416.64,159.056 417.473,164.722 417.5,170.5C 417.666,175.511 417.499,180.511 417,185.5C 411.234,194.696 406.234,204.362 402,214.5C 392.516,229.159 381.016,242.159 367.5,253.5C 366.491,255.518 365.491,257.518 364.5,259.5C 358.515,261.935 352.182,263.435 345.5,264C 335.484,264.63 325.484,264.463 315.5,263.5C 299.816,262.554 284.149,261.554 268.5,260.5C 269.641,278.324 270.974,295.991 272.5,313.5C 272.5,321.5 272.5,329.5 272.5,337.5C 270.156,352.908 264.49,366.908 255.5,379.5C 236.884,400.548 213.384,410.548 185,409.5C 154,407.499 128.333,394.833 108,371.5C 94.3035,354.773 85.4701,335.773 81.5,314.5C 79.9768,301.393 80.6435,288.393 83.5,275.5C 86.0683,268.125 89.4016,261.125 93.5,254.5C 99.798,246.534 106.798,239.201 114.5,232.5C 132.632,220.502 152.632,215.668 174.5,218C 189.031,218.608 203.365,219.775 217.5,221.5C 222.015,222.812 226.682,222.812 231.5,221.5C 229.692,202.717 228.025,184.05 226.5,165.5C 225.633,149.619 227.966,134.285 233.5,119.5C 237.601,110.961 242.934,103.294 249.5,96.5C 268.896,78.5882 291.896,70.5882 318.5,72.5 Z"/></g>
<g><path style="opacity:0.02" fill="#5b5b5b" d="M 137.5,30.5 C 133.335,33.1364 129.002,35.6364 124.5,38C 98.0554,54.9476 75.7221,76.1143 57.5,101.5C 38.5909,126.657 25.5909,154.657 18.5,185.5C 19.0662,182.417 19.0662,179.417 18.5,176.5C 20.617,171.999 21.7837,167.332 22,162.5C 20.8635,166.243 19.5302,169.91 18,173.5C 18.1843,169.925 19.0177,166.425 20.5,163C 20.0556,161.238 19.5556,161.405 19,163.5C 18.5172,162.552 18.3505,161.552 18.5,160.5C 33.7913,120.631 57.958,86.9642 91,59.5C 91.4828,58.552 91.6495,57.552 91.5,56.5C 94.3149,55.8736 96.8149,54.5402 99,52.5C 106.033,47.2906 113.866,42.4573 122.5,38C 126.787,33.4423 131.787,30.9423 137.5,30.5 Z"/></g>
<g><path style="opacity:1" fill="#a6a6a6" d="M 95.5,85.5 C 98.47,86.3084 100.303,88.3084 101,91.5C 101.333,91.1667 101.667,90.8333 102,90.5C 102.034,92.1796 102.201,93.6796 102.5,95C 101.833,96 101.167,97 100.5,98C 102.86,97.3279 104.86,98.1612 106.5,100.5C 107.086,100.291 107.586,99.9574 108,99.5C 108.3,102.016 107.133,103.682 104.5,104.5C 106.684,103.892 108.684,104.559 110.5,106.5C 109.975,107.192 109.308,107.692 108.5,108C 109.337,109.011 109.67,110.178 109.5,111.5C 110.5,111.5 111.5,111.5 112.5,111.5C 112.688,113.103 112.188,114.437 111,115.5C 110.107,114.289 109.274,114.289 108.5,115.5C 109.766,116.724 110.933,118.057 112,119.5C 112.333,118.833 112.667,118.167 113,117.5C 114.208,119.479 115.041,121.645 115.5,124C 113.064,125.332 113.064,126.499 115.5,127.5C 117.205,125.697 119.038,125.031 121,125.5C 121.72,127.112 121.554,128.612 120.5,130C 121.471,131.204 122.471,131.704 123.5,131.5C 121.632,133.575 121.965,135.742 124.5,138C 123.833,138.333 123.167,138.667 122.5,139C 123.766,139.309 124.933,139.809 126,140.5C 126.333,140.167 126.667,139.833 127,139.5C 129.274,141.506 131.108,143.839 132.5,146.5C 131.335,147.584 130.002,148.417 128.5,149C 129.872,149.402 131.205,149.902 132.5,150.5C 133.72,149.289 134.887,149.289 136,150.5C 136.689,149.643 137.522,148.977 138.5,148.5C 139.594,149.868 139.26,151.035 137.5,152C 138.333,152.167 139.167,152.333 140,152.5C 143.277,149.498 145.943,149.831 148,153.5C 148.684,151.641 149.684,149.974 151,148.5C 151.308,149.308 151.808,149.975 152.5,150.5C 153.967,150.277 155.467,149.944 157,149.5C 157.333,150.167 157.667,150.833 158,151.5C 158.759,149.365 160.259,148.032 162.5,147.5C 164.644,148.953 166.477,148.62 168,146.5C 169.525,146.888 171.192,146.888 173,146.5C 173.519,147.516 174.353,148.182 175.5,148.5C 179.903,145.941 184.237,145.941 188.5,148.5C 190.672,148.324 193.005,148.157 195.5,148C 194.112,147.111 194.278,146.611 196,146.5C 197.704,146.974 199.538,147.141 201.5,147C 200.304,147.654 200.304,148.154 201.5,148.5C 202.833,147.167 204.167,147.167 205.5,148.5C 205.489,147.559 205.989,146.892 207,146.5C 207.945,146.905 208.612,147.572 209,148.5C 209.333,147.833 209.667,147.167 210,146.5C 212.447,149.044 214.947,149.044 217.5,146.5C 218.696,146.846 218.696,147.346 217.5,148C 220.192,148.43 222.859,148.263 225.5,147.5C 225.177,153.69 225.51,159.69 226.5,165.5C 228.025,184.05 229.692,202.717 231.5,221.5C 226.682,222.812 222.015,222.812 217.5,221.5C 221.5,221.5 225.5,221.5 229.5,221.5C 229.8,214.727 229.133,208.06 227.5,201.5C 226.459,203.991 225.626,203.991 225,201.5C 222.656,202.197 220.489,201.531 218.5,199.5C 216.958,200.747 215.458,200.747 214,199.5C 213.026,201.878 212.359,201.544 212,198.5C 211.667,198.833 211.333,199.167 211,199.5C 209.62,196.942 208.12,196.942 206.5,199.5C 204.166,198.159 202.499,198.826 201.5,201.5C 199.808,199.641 198.308,197.641 197,195.5C 195.981,196.687 194.814,197.687 193.5,198.5C 192.808,197.975 192.308,197.308 192,196.5C 190.934,198.099 189.434,199.099 187.5,199.5C 186.5,198.167 185.5,198.167 184.5,199.5C 183.193,198.184 181.693,197.184 180,196.5C 177.965,199.593 175.631,201.593 173,202.5C 170.553,199.292 168.887,199.292 168,202.5C 163.206,199.463 158.873,200.129 155,204.5C 154.751,203.376 154.251,202.376 153.5,201.5C 153.089,202.262 152.923,203.262 153,204.5C 152,203.5 151,202.5 150,201.5C 147.403,202.952 145.403,204.285 144,205.5C 143.167,205.333 142.333,205.167 141.5,205C 142.604,203.869 142.271,203.035 140.5,202.5C 139.158,203.902 138.324,203.569 138,201.5C 137.333,202.167 136.667,202.833 136,203.5C 134.451,200.997 132.784,200.997 131,203.5C 129.203,200.904 127.869,201.237 127,204.5C 126.137,202.251 126.637,200.418 128.5,199C 126.521,198.316 124.854,198.816 123.5,200.5C 122.808,199.975 122.308,199.308 122,198.5C 121.902,200.619 121.069,202.286 119.5,203.5C 119.704,202.471 119.204,201.471 118,200.5C 117.667,200.833 117.333,201.167 117,201.5C 116.589,197.77 115.256,194.436 113,191.5C 112.667,192.833 112.333,194.167 112,195.5C 110.315,193.983 108.815,192.316 107.5,190.5C 106.549,191.326 105.549,191.492 104.5,191C 104.833,190.667 105.167,190.333 105.5,190C 101.784,188.42 99.6168,185.587 99,181.5C 98.6667,182.5 98.3333,183.5 98,184.5C 97.2797,182.888 97.4464,181.388 98.5,180C 95.7955,177.338 92.6288,174.838 89,172.5C 87.927,173.28 86.7604,173.113 85.5,172C 88.7626,171.131 89.0959,169.797 86.5,168C 87.3279,167.085 88.3279,166.419 89.5,166C 85.269,164.716 81.9356,162.216 79.5,158.5C 78.7492,159.376 78.2492,160.376 78,161.5C 77.5034,159.19 77.3367,156.857 77.5,154.5C 74.7952,154.62 74.1285,153.62 75.5,151.5C 74.624,150.749 73.624,150.249 72.5,150C 73.1667,149.667 73.8333,149.333 74.5,149C 73.8095,147.933 73.3095,146.766 73,145.5C 72.6667,145.833 72.3333,146.167 72,146.5C 71.5,145.333 70.6667,144.5 69.5,144C 70.0974,142.111 70.4307,140.278 70.5,138.5C 65.73,138.151 64.73,136.317 67.5,133C 65.4547,132.49 63.6213,131.657 62,130.5C 61.6174,131.056 61.1174,131.389 60.5,131.5C 69.8402,114.481 81.5068,99.1472 95.5,85.5 Z"/></g>
<g><path style="opacity:0.02" fill="#595959" d="M 341.5,20.5 C 351.453,23.9848 361.119,28.1515 370.5,33C 378.365,38.7602 386.365,44.2602 394.5,49.5C 395.689,50.4287 397.022,50.762 398.5,50.5C 398.351,51.552 398.517,52.552 399,53.5C 399.333,53.1667 399.667,52.8333 400,52.5C 437.336,80.9109 464.169,116.911 480.5,160.5C 479.94,162.801 479.44,165.134 479,167.5C 478.751,164.823 477.751,162.49 476,160.5C 475.329,161.252 474.496,161.586 473.5,161.5C 472.677,159.013 471.677,156.679 470.5,154.5C 457.965,121.397 438.965,92.7299 413.5,68.5C 401.522,57.0213 388.522,46.8547 374.5,38C 367.757,33.9617 360.757,30.4617 353.5,27.5C 349.195,25.6811 345.195,23.3478 341.5,20.5 Z"/></g>
<g><path style="opacity:1" fill="#a6a6a6" d="M 407.5,90.5 C 414.25,95.914 419.917,102.247 424.5,109.5C 431.379,117.718 437.046,126.718 441.5,136.5C 440.504,136.586 439.671,136.252 439,135.5C 439,138.167 439,140.833 439,143.5C 438.692,142.692 438.192,142.025 437.5,141.5C 436.42,144.121 434.753,146.288 432.5,148C 433.315,151.212 432.315,153.878 429.5,156C 429.833,156.333 430.167,156.667 430.5,157C 428.277,157.652 427.11,159.152 427,161.5C 426.667,160.833 426.333,160.167 426,159.5C 425.28,161.112 425.446,162.612 426.5,164C 424.905,163.383 423.572,163.716 422.5,165C 422.833,165.333 423.167,165.667 423.5,166C 422.23,166.9 421.23,168.066 420.5,169.5C 419.833,175.654 419.167,181.654 418.5,187.5C 418.822,181.642 418.489,175.975 417.5,170.5C 417.473,164.722 416.64,159.056 415,153.5C 410.35,140.12 403.85,127.787 395.5,116.5C 395.84,114.321 396.84,112.488 398.5,111C 397.483,109.951 397.316,108.784 398,107.5C 399.044,108.623 399.71,109.956 400,111.5C 400.333,110.5 400.667,109.5 401,108.5C 401.718,109.451 402.551,109.617 403.5,109C 403.657,106.231 402.991,103.398 401.5,100.5C 403.5,99.8333 405.5,99.1667 407.5,98.5C 405.724,97.6852 405.057,96.5185 405.5,95C 406.167,94.3333 406.833,93.6667 407.5,93C 404.887,91.9288 404.887,91.0955 407.5,90.5 Z"/></g>
<g><path style="opacity:1" fill="#acacac" d="M 377.5,151.5 C 375.966,150.797 374.299,150.964 372.5,152C 372.868,153.473 372.368,154.973 371,156.5C 370.667,156.167 370.333,155.833 370,155.5C 368.406,156.716 366.906,158.049 365.5,159.5C 365.704,158.471 365.204,157.471 364,156.5C 363.333,157.833 362.667,157.833 362,156.5C 360.445,158.146 358.779,158.479 357,157.5C 355.886,161.456 355.053,161.456 354.5,157.5C 352.325,157.318 350.325,156.651 348.5,155.5C 346.613,157.133 345.113,156.8 344,154.5C 343.395,156.481 342.395,156.815 341,155.5C 340.751,156.624 340.251,157.624 339.5,158.5C 336.708,157.353 333.875,156.353 331,155.5C 327.95,155.71 325.284,156.043 323,156.5C 322.309,154.109 321.309,154.109 320,156.5C 319.333,155.833 318.667,155.167 318,154.5C 311.82,154.639 305.654,154.639 299.5,154.5C 296.803,152.165 294.303,152.165 292,154.5C 291.333,153.833 290.667,153.167 290,152.5C 281.059,152.51 272.225,152.51 263.5,152.5C 263.737,153.791 263.404,154.791 262.5,155.5C 266.782,126.218 283.615,110.552 313,108.5C 343.382,109.758 364.882,124.092 377.5,151.5 Z"/></g>
<g><path style="opacity:0.998" fill="#e9e9e9" d="M 413.5,68.5 C 438.965,92.7299 457.965,121.397 470.5,154.5C 471.64,162.234 472.64,169.734 473.5,177C 471.302,178.67 470.968,180.67 472.5,183C 471.87,184.892 470.87,186.559 469.5,188C 470.167,189 470.833,190 471.5,191C 469.872,194.603 469.038,198.437 469,202.5C 467.54,206.494 466.373,206.494 465.5,202.5C 464.074,195.684 462.408,189.017 460.5,182.5C 459.517,177.046 458.017,171.713 456,166.5C 452.089,159.104 448.755,151.437 446,143.5C 444.476,141.102 442.976,138.769 441.5,136.5C 437.046,126.718 431.379,117.718 424.5,109.5C 425.675,109.281 426.675,109.614 427.5,110.5C 428.953,113.354 430.953,115.687 433.5,117.5C 433.593,113.78 433.593,110.113 433.5,106.5C 432.855,105.354 432.022,104.354 431,103.5C 429.981,101.731 429.814,100.064 430.5,98.5C 427.732,94.0611 425.399,89.3944 423.5,84.5C 420.047,79.8784 416.047,75.7118 411.5,72C 412.973,71.2904 413.64,70.1238 413.5,68.5 Z"/></g>
<g><path style="opacity:1" fill="#a0a0a0" d="M 217.5,221.5 C 203.365,219.775 189.031,218.608 174.5,218C 152.632,215.668 132.632,220.502 114.5,232.5C 114.5,231.167 114.5,229.833 114.5,228.5C 112.876,228.36 111.71,229.027 111,230.5C 109.615,229.449 108.615,228.116 108,226.5C 106.989,227.337 105.822,227.67 104.5,227.5C 104.286,225.856 104.62,224.356 105.5,223C 103.671,222.727 102.171,221.893 101,220.5C 99.2739,221.576 97.4406,221.743 95.5,221C 97.0074,220.163 97.5074,218.996 97,217.5C 96.0862,218.654 95.2529,218.487 94.5,217C 94.8333,216.667 95.1667,216.333 95.5,216C 94.2396,214.887 93.073,214.72 92,215.5C 90.6321,213.973 90.1321,212.473 90.5,211C 88.7215,211.979 87.0548,211.646 85.5,210C 86.8333,209 86.8333,208 85.5,207C 82.7197,205.724 80.053,204.224 77.5,202.5C 78.7161,201.904 80.0494,201.737 81.5,202C 80.0186,201.02 78.6853,199.853 77.5,198.5C 75.8767,199.476 74.5433,198.976 73.5,197C 75.9316,195.913 75.5983,195.413 72.5,195.5C 72.6567,194.127 72.49,192.793 72,191.5C 68.4336,187.934 65.2669,184.767 62.5,182C 62.9054,181.055 63.572,180.388 64.5,180C 62.6179,177.892 60.2846,176.559 57.5,176C 58.5,175.667 59.5,175.333 60.5,175C 58.7536,174.529 57.087,173.862 55.5,173C 56.4581,171.853 56.1247,170.853 54.5,170C 55.9561,169.577 56.4561,168.744 56,167.5C 53.8628,163.548 51.0294,160.215 47.5,157.5C 49.448,153.271 51.1147,148.938 52.5,144.5C 54.9301,139.963 57.5968,135.63 60.5,131.5C 61.1174,131.389 61.6174,131.056 62,130.5C 63.6213,131.657 65.4547,132.49 67.5,133C 64.73,136.317 65.73,138.151 70.5,138.5C 70.4307,140.278 70.0974,142.111 69.5,144C 70.6667,144.5 71.5,145.333 72,146.5C 72.3333,146.167 72.6667,145.833 73,145.5C 73.3095,146.766 73.8095,147.933 74.5,149C 73.8333,149.333 73.1667,149.667 72.5,150C 73.624,150.249 74.624,150.749 75.5,151.5C 74.1285,153.62 74.7952,154.62 77.5,154.5C 77.3367,156.857 77.5034,159.19 78,161.5C 78.2492,160.376 78.7492,159.376 79.5,158.5C 81.9356,162.216 85.269,164.716 89.5,166C 88.3279,166.419 87.3279,167.085 86.5,168C 89.0959,169.797 88.7626,171.131 85.5,172C 86.7604,173.113 87.927,173.28 89,172.5C 92.6288,174.838 95.7955,177.338 98.5,180C 97.4464,181.388 97.2797,182.888 98,184.5C 98.3333,183.5 98.6667,182.5 99,181.5C 99.6168,185.587 101.784,188.42 105.5,190C 105.167,190.333 104.833,190.667 104.5,191C 105.549,191.492 106.549,191.326 107.5,190.5C 108.815,192.316 110.315,193.983 112,195.5C 112.333,194.167 112.667,192.833 113,191.5C 115.256,194.436 116.589,197.77 117,201.5C 117.333,201.167 117.667,200.833 118,200.5C 119.204,201.471 119.704,202.471 119.5,203.5C 121.069,202.286 121.902,200.619 122,198.5C 122.308,199.308 122.808,199.975 123.5,200.5C 124.854,198.816 126.521,198.316 128.5,199C 126.637,200.418 126.137,202.251 127,204.5C 127.869,201.237 129.203,200.904 131,203.5C 132.784,200.997 134.451,200.997 136,203.5C 136.667,202.833 137.333,202.167 138,201.5C 138.324,203.569 139.158,203.902 140.5,202.5C 142.271,203.035 142.604,203.869 141.5,205C 142.333,205.167 143.167,205.333 144,205.5C 145.403,204.285 147.403,202.952 150,201.5C 151,202.5 152,203.5 153,204.5C 152.923,203.262 153.089,202.262 153.5,201.5C 154.251,202.376 154.751,203.376 155,204.5C 158.873,200.129 163.206,199.463 168,202.5C 168.887,199.292 170.553,199.292 173,202.5C 175.631,201.593 177.965,199.593 180,196.5C 181.693,197.184 183.193,198.184 184.5,199.5C 185.5,198.167 186.5,198.167 187.5,199.5C 189.434,199.099 190.934,198.099 192,196.5C 192.308,197.308 192.808,197.975 193.5,198.5C 194.814,197.687 195.981,196.687 197,195.5C 198.308,197.641 199.808,199.641 201.5,201.5C 202.499,198.826 204.166,198.159 206.5,199.5C 208.12,196.942 209.62,196.942 211,199.5C 211.333,199.167 211.667,198.833 212,198.5C 212.359,201.544 213.026,201.878 214,199.5C 215.458,200.747 216.958,200.747 218.5,199.5C 220.489,201.531 222.656,202.197 225,201.5C 225.626,203.991 226.459,203.991 227.5,201.5C 229.133,208.06 229.8,214.727 229.5,221.5C 225.5,221.5 221.5,221.5 217.5,221.5 Z"/></g>
<g><path style="opacity:1" fill="#a0a0a0" d="M 441.5,136.5 C 442.976,138.769 444.476,141.102 446,143.5C 448.755,151.437 452.089,159.104 456,166.5C 458.017,171.713 459.517,177.046 460.5,182.5C 458.263,176.971 456.097,171.305 454,165.5C 453.228,166.849 452.061,167.682 450.5,168C 451.5,168.333 452.5,168.667 453.5,169C 452.167,170 450.833,171 449.5,172C 450.641,172.741 450.641,173.575 449.5,174.5C 448.149,176.019 446.649,177.352 445,178.5C 444.667,178.167 444.333,177.833 444,177.5C 443.667,179.5 443.333,181.5 443,183.5C 440.833,185 438.667,186.5 436.5,188C 437.337,189.011 437.67,190.178 437.5,191.5C 436.448,191.351 435.448,191.517 434.5,192C 434.112,193.525 434.112,195.192 434.5,197C 433.24,198.113 432.073,198.28 431,197.5C 430.517,198.448 430.351,199.448 430.5,200.5C 428.833,200.5 427.167,200.5 425.5,200.5C 425.034,202.201 425.034,203.701 425.5,205C 424.428,206.284 423.095,206.617 421.5,206C 421.833,206.333 422.167,206.667 422.5,207C 420.951,208.214 419.785,209.714 419,211.5C 418.586,211.043 418.086,210.709 417.5,210.5C 416.106,212.725 414.94,215.058 414,217.5C 412.855,217.619 411.688,217.952 410.5,218.5C 414.875,208.667 417.542,198.334 418.5,187.5C 419.167,181.654 419.833,175.654 420.5,169.5C 421.23,168.066 422.23,166.9 423.5,166C 423.167,165.667 422.833,165.333 422.5,165C 423.572,163.716 424.905,163.383 426.5,164C 425.446,162.612 425.28,161.112 426,159.5C 426.333,160.167 426.667,160.833 427,161.5C 427.11,159.152 428.277,157.652 430.5,157C 430.167,156.667 429.833,156.333 429.5,156C 432.315,153.878 433.315,151.212 432.5,148C 434.753,146.288 436.42,144.121 437.5,141.5C 438.192,142.025 438.692,142.692 439,143.5C 439,140.833 439,138.167 439,135.5C 439.671,136.252 440.504,136.586 441.5,136.5 Z"/></g>
<g><path style="opacity:1" fill="#a6a6a6" d="M 377.5,151.5 C 387.068,172.414 384.901,192.08 371,210.5C 364.677,217.401 357.177,222.401 348.5,225.5C 336.268,227.342 323.935,228.009 311.5,227.5C 296.158,227.014 280.824,226.348 265.5,225.5C 264.832,202.154 263.832,178.821 262.5,155.5C 263.404,154.791 263.737,153.791 263.5,152.5C 272.225,152.51 281.059,152.51 290,152.5C 290.667,153.167 291.333,153.833 292,154.5C 294.303,152.165 296.803,152.165 299.5,154.5C 305.654,154.639 311.82,154.639 318,154.5C 318.667,155.167 319.333,155.833 320,156.5C 321.309,154.109 322.309,154.109 323,156.5C 325.284,156.043 327.95,155.71 331,155.5C 333.875,156.353 336.708,157.353 339.5,158.5C 340.251,157.624 340.751,156.624 341,155.5C 342.395,156.815 343.395,156.481 344,154.5C 345.113,156.8 346.613,157.133 348.5,155.5C 350.325,156.651 352.325,157.318 354.5,157.5C 355.053,161.456 355.886,161.456 357,157.5C 358.779,158.479 360.445,158.146 362,156.5C 362.667,157.833 363.333,157.833 364,156.5C 365.204,157.471 365.704,158.471 365.5,159.5C 366.906,158.049 368.406,156.716 370,155.5C 370.333,155.833 370.667,156.167 371,156.5C 372.368,154.973 372.868,153.473 372.5,152C 374.299,150.964 375.966,150.797 377.5,151.5 Z"/></g>
<g><path style="opacity:1" fill="#999999" d="M 47.5,157.5 C 51.0294,160.215 53.8628,163.548 56,167.5C 56.4561,168.744 55.9561,169.577 54.5,170C 56.1247,170.853 56.4581,171.853 55.5,173C 57.087,173.862 58.7536,174.529 60.5,175C 59.5,175.333 58.5,175.667 57.5,176C 60.2846,176.559 62.6179,177.892 64.5,180C 63.572,180.388 62.9054,181.055 62.5,182C 65.2669,184.767 68.4336,187.934 72,191.5C 72.49,192.793 72.6567,194.127 72.5,195.5C 75.5983,195.413 75.9316,195.913 73.5,197C 74.5433,198.976 75.8767,199.476 77.5,198.5C 78.6853,199.853 80.0186,201.02 81.5,202C 80.0494,201.737 78.7161,201.904 77.5,202.5C 80.053,204.224 82.7197,205.724 85.5,207C 86.8333,208 86.8333,209 85.5,210C 87.0548,211.646 88.7215,211.979 90.5,211C 90.1321,212.473 90.6321,213.973 92,215.5C 93.073,214.72 94.2396,214.887 95.5,216C 95.1667,216.333 94.8333,216.667 94.5,217C 95.2529,218.487 96.0862,218.654 97,217.5C 97.5074,218.996 97.0074,220.163 95.5,221C 97.4406,221.743 99.2739,221.576 101,220.5C 102.171,221.893 103.671,222.727 105.5,223C 104.62,224.356 104.286,225.856 104.5,227.5C 105.822,227.67 106.989,227.337 108,226.5C 108.615,228.116 109.615,229.449 111,230.5C 111.71,229.027 112.876,228.36 114.5,228.5C 114.5,229.833 114.5,231.167 114.5,232.5C 106.798,239.201 99.798,246.534 93.5,254.5C 93.741,251.001 92.9076,250.668 91,253.5C 90.3828,252.551 90.5494,251.718 91.5,251C 89.2262,250.53 87.2262,249.53 85.5,248C 85.5,247 85.5,246 85.5,245C 83.714,244.215 82.214,243.049 81,241.5C 79.8173,242.731 78.6507,242.731 77.5,241.5C 77.7093,240.914 78.0426,240.414 78.5,240C 77.0267,239.29 76.3601,238.124 76.5,236.5C 75.1779,236.33 74.0113,236.663 73,237.5C 71.0842,233.915 68.2509,231.415 64.5,230C 65.8333,229.333 65.8333,228.667 64.5,228C 65.1667,227.667 65.8333,227.333 66.5,227C 64.6362,225.594 62.8029,225.094 61,225.5C 60.6667,223.833 60.3333,222.167 60,220.5C 57.8707,221.863 57.3707,221.529 58.5,219.5C 57.3504,216.68 56.1838,216.346 55,218.5C 53.8372,216.715 53.1705,214.715 53,212.5C 52.6667,212.833 52.3333,213.167 52,213.5C 50.5,212.333 49,211.167 47.5,210C 47.8333,209.667 48.1667,209.333 48.5,209C 45.9559,206.343 43.2892,203.843 40.5,201.5C 41.1667,201.167 41.8333,200.833 42.5,200.5C 40.8363,198.245 39.003,196.911 37,196.5C 36.7996,198.32 35.9663,199.653 34.5,200.5C 35.8376,193.481 37.3376,186.481 39,179.5C 42.3255,172.357 45.1589,165.023 47.5,157.5 Z"/></g>
<g><path style="opacity:1" fill="#999999" d="M 460.5,182.5 C 462.408,189.017 464.074,195.684 465.5,202.5C 465.833,205.833 466.167,209.167 466.5,212.5C 465.394,209.598 464.228,206.598 463,203.5C 461.596,207.843 458.763,210.676 454.5,212C 455.451,212.718 455.617,213.551 455,214.5C 454.282,213.549 453.449,213.383 452.5,214C 453.451,214.718 453.617,215.551 453,216.5C 451.43,217.614 450.097,218.947 449,220.5C 448.667,220.167 448.333,219.833 448,219.5C 446.885,224.245 444.052,227.412 439.5,229C 440.747,230.494 440.747,231.994 439.5,233.5C 437.671,232.718 436.171,233.384 435,235.5C 434.667,235.167 434.333,234.833 434,234.5C 432.091,237.792 429.591,240.625 426.5,243C 426.833,243.333 427.167,243.667 427.5,244C 426.049,243.737 424.716,243.904 423.5,244.5C 424.025,245.192 424.692,245.692 425.5,246C 423.975,247.009 422.308,247.509 420.5,247.5C 419.925,249.202 419.092,250.869 418,252.5C 416.951,251.483 415.784,251.316 414.5,252C 413.167,252.667 413.167,253.333 414.5,254C 411.995,254.51 410.495,256.01 410,258.5C 409.333,257.167 408.667,257.167 408,258.5C 406.06,261.57 404.226,264.57 402.5,267.5C 400.774,267.185 399.107,267.019 397.5,267C 398.711,267.893 398.711,268.726 397.5,269.5C 395.224,270.213 392.891,270.713 390.5,271C 392.974,273.428 392.474,273.928 389,272.5C 388.667,273.5 388.333,274.5 388,275.5C 386.992,275.018 385.825,274.852 384.5,275C 385.622,273.387 385.122,272.22 383,271.5C 382.16,274.464 381.16,274.797 380,272.5C 378.475,272.888 376.808,272.888 375,272.5C 372.47,275.471 369.47,276.804 366,276.5C 364.956,275.377 364.29,274.044 364,272.5C 363.085,273.328 362.419,274.328 362,275.5C 360.184,274.671 358.351,273.837 356.5,273C 357.696,272.346 357.696,271.846 356.5,271.5C 355.833,271.833 355.167,272.167 354.5,272.5C 349.317,270.338 344.317,268.005 339.5,265.5C 339.167,266.167 338.833,266.833 338.5,267.5C 337.059,266.696 335.559,266.029 334,265.5C 327.789,266.638 321.623,265.971 315.5,263.5C 325.484,264.463 335.484,264.63 345.5,264C 352.182,263.435 358.515,261.935 364.5,259.5C 375.398,255.717 385.064,249.884 393.5,242C 400.192,234.824 405.858,226.99 410.5,218.5C 411.688,217.952 412.855,217.619 414,217.5C 414.94,215.058 416.106,212.725 417.5,210.5C 418.086,210.709 418.586,211.043 419,211.5C 419.785,209.714 420.951,208.214 422.5,207C 422.167,206.667 421.833,206.333 421.5,206C 423.095,206.617 424.428,206.284 425.5,205C 425.034,203.701 425.034,202.201 425.5,200.5C 427.167,200.5 428.833,200.5 430.5,200.5C 430.351,199.448 430.517,198.448 431,197.5C 432.073,198.28 433.24,198.113 434.5,197C 434.112,195.192 434.112,193.525 434.5,192C 435.448,191.517 436.448,191.351 437.5,191.5C 437.67,190.178 437.337,189.011 436.5,188C 438.667,186.5 440.833,185 443,183.5C 443.333,181.5 443.667,179.5 444,177.5C 444.333,177.833 444.667,178.167 445,178.5C 446.649,177.352 448.149,176.019 449.5,174.5C 450.641,173.575 450.641,172.741 449.5,172C 450.833,171 452.167,170 453.5,169C 452.5,168.667 451.5,168.333 450.5,168C 452.061,167.682 453.228,166.849 454,165.5C 456.097,171.305 458.263,176.971 460.5,182.5 Z"/></g>
<g><path style="opacity:0.998" fill="#e2e2e2" d="M 57.5,101.5 C 56.6542,104.938 54.9876,107.938 52.5,110.5C 53.1667,110.833 53.8333,111.167 54.5,111.5C 52.7775,113.778 51.4441,116.278 50.5,119C 50.7575,121.552 49.7575,123.885 47.5,126C 48.3279,126.915 49.3279,127.581 50.5,128C 49.2893,128.787 48.2893,129.454 47.5,130C 47.9504,131.285 48.6171,132.452 49.5,133.5C 49.591,136.609 49.2577,139.775 48.5,143C 48.8623,144.225 49.3623,145.391 50,146.5C 50.4169,145.244 51.2502,144.577 52.5,144.5C 51.1147,148.938 49.448,153.271 47.5,157.5C 45.1589,165.023 42.3255,172.357 39,179.5C 37.3376,186.481 35.8376,193.481 34.5,200.5C 32.5477,208.584 31.5477,216.917 31.5,225.5C 31.5,226.167 31.1667,226.5 30.5,226.5C 29.834,231.322 29.5007,236.322 29.5,241.5C 29.7931,252.209 30.2931,262.875 31,273.5C 30.0524,271.43 28.5524,269.93 26.5,269C 27.1667,268.667 27.8333,268.333 28.5,268C 23.7336,259.991 19.2336,251.157 15,241.5C 14.8138,244.036 14.3138,246.369 13.5,248.5C 13.3335,238.161 13.5002,227.828 14,217.5C 15.6977,206.849 17.1977,196.182 18.5,185.5C 25.5909,154.657 38.5909,126.657 57.5,101.5 Z"/></g>
<g><path style="opacity:0.151" fill="#686868" d="M 474.5,162.5 C 475.458,162.953 476.292,163.619 477,164.5C 478.333,169.167 479.667,173.833 481,178.5C 482.156,177.007 482.99,177.174 483.5,179C 482.833,179.667 482.167,180.333 481.5,181C 483.359,187.958 484.359,194.792 484.5,201.5C 484.5,200.833 484.167,200.5 483.5,200.5C 483.436,196.78 482.936,193.114 482,189.5C 479.041,180.669 476.541,171.669 474.5,162.5 Z"/></g>
<g><path style="opacity:1" fill="#fbfbfb" d="M 367.5,184.5 C 368.5,184.5 369.5,184.5 370.5,184.5C 366.94,201.228 356.94,212.061 340.5,217C 320.069,217.619 299.735,216.452 279.5,213.5C 291.323,201.422 305.656,194.422 322.5,192.5C 330.505,193.336 338.505,193.836 346.5,194C 354.691,192.895 361.691,189.729 367.5,184.5 Z"/></g>
<g><path style="opacity:1" fill="#f2f2f2" d="M 417.5,170.5 C 418.489,175.975 418.822,181.642 418.5,187.5C 417.542,198.334 414.875,208.667 410.5,218.5C 405.858,226.99 400.192,234.824 393.5,242C 385.064,249.884 375.398,255.717 364.5,259.5C 365.491,257.518 366.491,255.518 367.5,253.5C 381.016,242.159 392.516,229.159 402,214.5C 406.234,204.362 411.234,194.696 417,185.5C 417.499,180.511 417.666,175.511 417.5,170.5 Z"/></g>
<g><path style="opacity:1" fill="#929292" d="M 93.5,254.5 C 89.4016,261.125 86.0683,268.125 83.5,275.5C 82.2921,274.766 80.9587,274.433 79.5,274.5C 79.7804,271.612 78.4471,270.112 75.5,270C 74.7894,268.745 73.956,267.579 73,266.5C 71.1598,267.833 70.6598,267.666 71.5,266C 70.1414,264.796 69.1414,263.296 68.5,261.5C 66.5331,260.318 65.1997,260.985 64.5,263.5C 64.1667,263.333 63.8333,263.167 63.5,263C 64.7596,261.186 64.7596,259.353 63.5,257.5C 61.766,255.766 59.766,254.432 57.5,253.5C 57.7093,252.914 58.0426,252.414 58.5,252C 56.8016,252.497 55.1349,252.33 53.5,251.5C 52.3961,250.369 52.7295,249.535 54.5,249C 52.5166,246.432 49.5166,244.432 45.5,243C 46.4506,242.282 46.6172,241.449 46,240.5C 42.5756,239.811 40.2423,237.478 39,233.5C 37.0548,232.124 35.0548,230.458 33,228.5C 32.3828,227.551 32.5494,226.718 33.5,226C 32.9056,225.536 32.2389,225.369 31.5,225.5C 31.5477,216.917 32.5477,208.584 34.5,200.5C 35.9663,199.653 36.7996,198.32 37,196.5C 39.003,196.911 40.8363,198.245 42.5,200.5C 41.8333,200.833 41.1667,201.167 40.5,201.5C 43.2892,203.843 45.9559,206.343 48.5,209C 48.1667,209.333 47.8333,209.667 47.5,210C 49,211.167 50.5,212.333 52,213.5C 52.3333,213.167 52.6667,212.833 53,212.5C 53.1705,214.715 53.8372,216.715 55,218.5C 56.1838,216.346 57.3504,216.68 58.5,219.5C 57.3707,221.529 57.8707,221.863 60,220.5C 60.3333,222.167 60.6667,223.833 61,225.5C 62.8029,225.094 64.6362,225.594 66.5,227C 65.8333,227.333 65.1667,227.667 64.5,228C 65.8333,228.667 65.8333,229.333 64.5,230C 68.2509,231.415 71.0842,233.915 73,237.5C 74.0113,236.663 75.1779,236.33 76.5,236.5C 76.3601,238.124 77.0267,239.29 78.5,240C 78.0426,240.414 77.7093,240.914 77.5,241.5C 78.6507,242.731 79.8173,242.731 81,241.5C 82.214,243.049 83.714,244.215 85.5,245C 85.5,246 85.5,247 85.5,248C 87.2262,249.53 89.2262,250.53 91.5,251C 90.5494,251.718 90.3828,252.551 91,253.5C 92.9076,250.668 93.741,251.001 93.5,254.5 Z"/></g>
<g><path style="opacity:1" fill="#929292" d="M 466.5,212.5 C 467.229,217.13 467.563,221.797 467.5,226.5C 466.776,228.218 466.109,230.052 465.5,232C 466.847,235.49 466.18,238.657 463.5,241.5C 461.392,242.944 459.392,243.611 457.5,243.5C 458.729,244.281 460.062,244.781 461.5,245C 456.24,245.461 453.24,247.961 452.5,252.5C 451.28,253.711 450.113,253.711 449,252.5C 448.667,253.833 448.333,255.167 448,256.5C 447.667,255.833 447.333,255.167 447,254.5C 446.16,257.464 445.16,257.797 444,255.5C 443.51,256.793 443.343,258.127 443.5,259.5C 442.022,259.238 440.689,259.571 439.5,260.5C 439.709,261.086 440.043,261.586 440.5,262C 438.321,262.442 437.655,263.442 438.5,265C 437.124,267.543 435.957,267.709 435,265.5C 434.355,266.646 433.522,267.646 432.5,268.5C 432.709,269.086 433.043,269.586 433.5,270C 431.833,269.667 430.167,269.333 428.5,269C 426.802,270.403 426.302,272.236 427,274.5C 425,273.833 423,273.167 421,272.5C 420.86,275.043 420.194,277.377 419,279.5C 417.915,277.343 416.749,277.176 415.5,279C 416.167,279.333 416.833,279.667 417.5,280C 415.737,281.602 413.904,282.102 412,281.5C 410.786,283.049 409.286,284.215 407.5,285C 408.956,285.423 409.456,286.256 409,287.5C 408.586,287.043 408.086,286.709 407.5,286.5C 406.147,287.685 404.98,289.019 404,290.5C 403.667,289.5 403.333,288.5 403,287.5C 402.529,289.246 401.862,290.913 401,292.5C 400.667,291.833 400.333,291.167 400,290.5C 399.333,291.833 398.667,291.833 398,290.5C 396,293.167 394,295.833 392,298.5C 390.598,296.027 389.098,296.027 387.5,298.5C 386.914,298.291 386.414,297.957 386,297.5C 385.56,299.076 384.727,300.41 383.5,301.5C 384.999,302.904 384.666,303.57 382.5,303.5C 380.726,303.113 379.059,302.447 377.5,301.5C 376.264,302.246 374.93,302.579 373.5,302.5C 373.649,303.552 373.483,304.552 373,305.5C 369.526,304.072 369.026,304.572 371.5,307C 370.216,307.684 369.049,307.517 368,306.5C 367,307.5 366,308.5 365,309.5C 364.803,307.139 363.636,305.472 361.5,304.5C 360.304,304.846 360.304,305.346 361.5,306C 360.234,306.309 359.067,306.809 358,307.5C 356.663,306.235 355.163,305.735 353.5,306C 354.28,307.073 354.113,308.24 353,309.5C 352.667,308.5 352.333,307.5 352,306.5C 350.989,307.337 349.822,307.67 348.5,307.5C 348.785,305.712 348.452,304.045 347.5,302.5C 346.5,303.833 345.5,303.833 344.5,302.5C 343.323,305.316 341.656,304.983 339.5,301.5C 332.897,305.031 329.231,303.031 328.5,295.5C 326.61,295.297 325.11,295.963 324,297.5C 322.853,296.542 321.853,296.875 321,298.5C 320.517,297.552 320.351,296.552 320.5,295.5C 316.011,295.056 311.677,294.889 307.5,295C 308.833,294.667 310.167,294.333 311.5,294C 309.193,293.221 307.193,293.721 305.5,295.5C 305.167,294.833 304.833,294.167 304.5,293.5C 302.833,296.167 301.167,296.167 299.5,293.5C 298.28,294.711 297.113,294.711 296,293.5C 294.343,296.16 292.676,296.16 291,293.5C 290.055,293.905 289.388,294.572 289,295.5C 288,292.833 287,292.833 286,295.5C 284.874,294.056 283.374,293.39 281.5,293.5C 279.377,295.094 277.211,295.761 275,295.5C 273.278,295.389 273.112,294.889 274.5,294C 272.834,291.52 272.001,288.687 272,285.5C 272.183,294.815 272.349,304.148 272.5,313.5C 270.974,295.991 269.641,278.324 268.5,260.5C 284.149,261.554 299.816,262.554 315.5,263.5C 321.623,265.971 327.789,266.638 334,265.5C 335.559,266.029 337.059,266.696 338.5,267.5C 338.833,266.833 339.167,266.167 339.5,265.5C 344.317,268.005 349.317,270.338 354.5,272.5C 355.167,272.167 355.833,271.833 356.5,271.5C 357.696,271.846 357.696,272.346 356.5,273C 358.351,273.837 360.184,274.671 362,275.5C 362.419,274.328 363.085,273.328 364,272.5C 364.29,274.044 364.956,275.377 366,276.5C 369.47,276.804 372.47,275.471 375,272.5C 376.808,272.888 378.475,272.888 380,272.5C 381.16,274.797 382.16,274.464 383,271.5C 385.122,272.22 385.622,273.387 384.5,275C 385.825,274.852 386.992,275.018 388,275.5C 388.333,274.5 388.667,273.5 389,272.5C 392.474,273.928 392.974,273.428 390.5,271C 392.891,270.713 395.224,270.213 397.5,269.5C 398.711,268.726 398.711,267.893 397.5,267C 399.107,267.019 400.774,267.185 402.5,267.5C 404.226,264.57 406.06,261.57 408,258.5C 408.667,257.167 409.333,257.167 410,258.5C 410.495,256.01 411.995,254.51 414.5,254C 413.167,253.333 413.167,252.667 414.5,252C 415.784,251.316 416.951,251.483 418,252.5C 419.092,250.869 419.925,249.202 420.5,247.5C 422.308,247.509 423.975,247.009 425.5,246C 424.692,245.692 424.025,245.192 423.5,244.5C 424.716,243.904 426.049,243.737 427.5,244C 427.167,243.667 426.833,243.333 426.5,243C 429.591,240.625 432.091,237.792 434,234.5C 434.333,234.833 434.667,235.167 435,235.5C 436.171,233.384 437.671,232.718 439.5,233.5C 440.747,231.994 440.747,230.494 439.5,229C 444.052,227.412 446.885,224.245 448,219.5C 448.333,219.833 448.667,220.167 449,220.5C 450.097,218.947 451.43,217.614 453,216.5C 453.617,215.551 453.451,214.718 452.5,214C 453.449,213.383 454.282,213.549 455,214.5C 455.617,213.551 455.451,212.718 454.5,212C 458.763,210.676 461.596,207.843 463,203.5C 464.228,206.598 465.394,209.598 466.5,212.5 Z"/></g>
<g><path style="opacity:0.063" fill="#454545" d="M 480.5,160.5 C 482.739,165.216 484.405,170.216 485.5,175.5C 481.828,176.045 482.162,176.378 486.5,176.5C 486.433,178.401 486.767,180.234 487.5,182C 484.61,183.892 484.944,184.725 488.5,184.5C 488.64,186.124 487.973,187.29 486.5,188C 487.448,188.483 488.448,188.649 489.5,188.5C 489.52,190.143 488.853,191.476 487.5,192.5C 488.5,193.167 489.5,193.833 490.5,194.5C 487.771,196.367 488.104,197.367 491.5,197.5C 491.443,199.884 491.777,202.218 492.5,204.5C 491.453,206.056 490.786,207.723 490.5,209.5C 491.5,209.5 492.5,209.5 493.5,209.5C 492.833,211.833 492.167,214.167 491.5,216.5C 492.5,216.5 493.5,216.5 494.5,216.5C 494.5,218.167 494.5,219.833 494.5,221.5C 493.5,221.5 492.5,221.5 491.5,221.5C 492.096,223.398 492.096,225.065 491.5,226.5C 490.883,226.611 490.383,226.944 490,227.5C 489.667,237.167 489.333,246.833 489,256.5C 488.292,257.381 487.458,258.047 486.5,258.5C 488.068,239.436 487.401,220.436 484.5,201.5C 484.359,194.792 483.359,187.958 481.5,181C 482.167,180.333 482.833,179.667 483.5,179C 482.99,177.174 482.156,177.007 481,178.5C 479.667,173.833 478.333,169.167 477,164.5C 476.292,163.619 475.458,162.953 474.5,162.5C 473.833,162.5 473.5,162.167 473.5,161.5C 474.496,161.586 475.329,161.252 476,160.5C 477.751,162.49 478.751,164.823 479,167.5C 479.44,165.134 479.94,162.801 480.5,160.5 Z"/></g>
<g><path style="opacity:0.087" fill="#494949" d="M 18.5,160.5 C 18.3505,161.552 18.5172,162.552 19,163.5C 19.5556,161.405 20.0556,161.238 20.5,163C 19.0177,166.425 18.1843,169.925 18,173.5C 19.5302,169.91 20.8635,166.243 22,162.5C 21.7837,167.332 20.617,171.999 18.5,176.5C 19.0662,179.417 19.0662,182.417 18.5,185.5C 12.4797,209.045 10.4797,233.045 12.5,257.5C 11.8501,257.196 11.1835,256.863 10.5,256.5C 9.83333,247.833 9.16667,239.167 8.5,230.5C 6.69778,229.725 6.03112,228.725 6.5,227.5C 6.33003,226.178 6.66337,225.011 7.5,224C 4.85544,222.713 3.85544,220.547 4.5,217.5C 5.5,217.5 6.5,217.5 7.5,217.5C 7.08473,215.253 6.41806,213.086 5.5,211C 5.93504,207.937 6.76838,207.77 8,210.5C 8.16667,210 8.33333,209.5 8.5,209C 7.54437,207.635 6.87771,206.135 6.5,204.5C 7.58882,200.903 8.25548,197.237 8.5,193.5C 12.1233,193.351 12.4566,192.184 9.5,190C 10.3839,188.902 11.3839,188.402 12.5,188.5C 11.689,187.784 11.0223,186.95 10.5,186C 12.7019,177.234 15.3686,168.734 18.5,160.5 Z"/></g>
<g><path style="opacity:1" fill="#8d8d8d" d="M 31.5,225.5 C 32.2389,225.369 32.9056,225.536 33.5,226C 32.5494,226.718 32.3828,227.551 33,228.5C 35.0548,230.458 37.0548,232.124 39,233.5C 40.2423,237.478 42.5756,239.811 46,240.5C 46.6172,241.449 46.4506,242.282 45.5,243C 49.5166,244.432 52.5166,246.432 54.5,249C 52.7295,249.535 52.3961,250.369 53.5,251.5C 55.1349,252.33 56.8016,252.497 58.5,252C 58.0426,252.414 57.7093,252.914 57.5,253.5C 59.766,254.432 61.766,255.766 63.5,257.5C 64.7596,259.353 64.7596,261.186 63.5,263C 63.8333,263.167 64.1667,263.333 64.5,263.5C 65.1997,260.985 66.5331,260.318 68.5,261.5C 69.1414,263.296 70.1414,264.796 71.5,266C 70.6598,267.666 71.1598,267.833 73,266.5C 73.956,267.579 74.7894,268.745 75.5,270C 78.4471,270.112 79.7804,271.612 79.5,274.5C 80.9587,274.433 82.2921,274.766 83.5,275.5C 80.6435,288.393 79.9768,301.393 81.5,314.5C 80.8826,314.389 80.3826,314.056 80,313.5C 78.6582,309.432 78.4915,305.432 79.5,301.5C 77.4028,301.997 75.5695,302.33 74,302.5C 73.6667,301.167 73.3333,299.833 73,298.5C 72.586,298.957 72.086,299.291 71.5,299.5C 68.8103,297.644 66.6437,295.311 65,292.5C 62.1354,293.041 60.1354,291.707 59,288.5C 56.8707,289.863 56.3707,289.529 57.5,287.5C 56.5,286.5 55.5,285.5 54.5,284.5C 53.8076,285.025 53.3076,285.692 53,286.5C 50.5649,284.563 50.3982,282.73 52.5,281C 49.7287,281.347 47.0621,281.18 44.5,280.5C 44.7035,278.61 44.0368,277.11 42.5,276C 43.4506,275.282 43.6172,274.449 43,273.5C 39.5259,274.928 39.0259,274.428 41.5,272C 39.3136,270.691 37.1469,270.524 35,271.5C 34.502,274.482 34.3354,277.482 34.5,280.5C 31.1241,262.8 29.7908,244.8 30.5,226.5C 31.1667,226.5 31.5,226.167 31.5,225.5 Z"/></g>
<g><path style="opacity:1" fill="#c0c0c0" d="M 348.5,225.5 C 347.158,226.793 345.491,227.626 343.5,228C 332.673,229.718 322.006,229.552 311.5,227.5C 323.935,228.009 336.268,227.342 348.5,225.5 Z"/></g>
<g><path style="opacity:1" fill="#dedede" d="M 470.5,154.5 C 471.677,156.679 472.677,159.013 473.5,161.5C 473.5,162.167 473.833,162.5 474.5,162.5C 476.541,171.669 479.041,180.669 482,189.5C 482.936,193.114 483.436,196.78 483.5,200.5C 485.273,222.784 485.939,245.118 485.5,267.5C 484.105,271.591 483.272,275.924 483,280.5C 482.667,281.167 482.333,281.833 482,282.5C 481.667,280.5 481.333,278.5 481,276.5C 481.434,281.91 479.268,285.744 474.5,288C 474.833,288.333 475.167,288.667 475.5,289C 473.538,293.096 471.205,296.929 468.5,300.5C 469.902,301.842 469.569,302.676 467.5,303C 467.833,303.333 468.167,303.667 468.5,304C 466.195,305.134 464.195,306.634 462.5,308.5C 460.946,309.372 459.612,309.372 458.5,308.5C 459.167,304.833 459.833,301.167 460.5,297.5C 467.128,274.221 469.461,250.554 467.5,226.5C 467.563,221.797 467.229,217.13 466.5,212.5C 466.167,209.167 465.833,205.833 465.5,202.5C 466.373,206.494 467.54,206.494 469,202.5C 469.038,198.437 469.872,194.603 471.5,191C 470.833,190 470.167,189 469.5,188C 470.87,186.559 471.87,184.892 472.5,183C 470.968,180.67 471.302,178.67 473.5,177C 472.64,169.734 471.64,162.234 470.5,154.5 Z"/></g>
<g><path style="opacity:0.117" fill="#363636" d="M 6.5,227.5 C 6.03112,228.725 6.69778,229.725 8.5,230.5C 9.16667,239.167 9.83333,247.833 10.5,256.5C 11.1835,256.863 11.8501,257.196 12.5,257.5C 12.4497,263.389 13.1164,269.056 14.5,274.5C 14.7921,279.545 15.4588,284.545 16.5,289.5C 20.3025,305.24 25.3025,320.574 31.5,335.5C 30.5,335.5 29.5,335.5 28.5,335.5C 28.6709,333.007 27.6709,331.174 25.5,330C 26.8146,328.605 26.4812,327.605 24.5,327C 25.6341,325.984 25.3008,325.317 23.5,325C 24.2764,323.23 24.1097,321.397 23,319.5C 22.6667,319.833 22.3333,320.167 22,320.5C 19.7197,312.498 17.553,304.498 15.5,296.5C 12.5133,296.578 11.8466,295.411 13.5,293C 13.2409,291.739 12.5742,290.739 11.5,290C 13.9556,288.087 13.6222,286.421 10.5,285C 11.0585,284.275 11.3918,283.442 11.5,282.5C 10.2007,279.988 9.2007,277.321 8.5,274.5C 9.02527,273.808 9.69194,273.308 10.5,273C 8.95438,271.56 8.12104,269.727 8,267.5C 7.1798,256.677 6.34647,246.01 5.5,235.5C 3.07279,234.721 3.07279,233.554 5.5,232C 3.95675,229.955 4.29008,228.455 6.5,227.5 Z"/></g>
<g><path style="opacity:0.713" fill="#aeaeae" d="M 18.5,185.5 C 17.1977,196.182 15.6977,206.849 14,217.5C 13.5002,227.828 13.3335,238.161 13.5,248.5C 13.5205,257.182 13.8539,265.848 14.5,274.5C 13.1164,269.056 12.4497,263.389 12.5,257.5C 10.4797,233.045 12.4797,209.045 18.5,185.5 Z"/></g>
<g><path style="opacity:1" fill="#8c8c8c" d="M 467.5,226.5 C 469.461,250.554 467.128,274.221 460.5,297.5C 461.539,291.542 462.206,285.709 462.5,280C 460.512,279.82 458.512,279.986 456.5,280.5C 456.259,284.083 454.592,285.749 451.5,285.5C 452.089,287.373 451.422,289.04 449.5,290.5C 448.808,289.975 448.308,289.308 448,288.5C 446.96,291.04 445.126,292.707 442.5,293.5C 441.948,295.333 441.115,297 440,298.5C 439.383,297.551 439.549,296.718 440.5,296C 439.175,296.148 438.008,295.982 437,295.5C 436.691,296.766 436.191,297.933 435.5,299C 434.262,298.923 433.262,299.089 432.5,299.5C 433.167,300.167 433.833,300.833 434.5,301.5C 431.834,302.039 429.667,303.372 428,305.5C 426.951,304.483 425.784,304.316 424.5,305C 425.275,309.943 424.109,310.443 421,306.5C 420.784,308.384 420.117,310.051 419,311.5C 418.333,310.833 417.667,310.167 417,309.5C 416.02,310.981 414.853,312.315 413.5,313.5C 411.994,314.747 410.494,314.747 409,313.5C 409.077,314.738 408.911,315.738 408.5,316.5C 407.833,315.833 407.167,315.167 406.5,314.5C 405.904,315.716 405.737,317.049 406,318.5C 403.567,321.109 401.234,323.109 399,324.5C 397.301,323.594 395.467,323.261 393.5,323.5C 393.649,324.552 393.483,325.552 393,326.5C 391.434,327.061 390.101,326.394 389,324.5C 387.47,325.636 386.137,326.636 385,327.5C 381.225,326.853 380.725,328.019 383.5,331C 382.004,331.507 380.837,331.007 380,329.5C 378.778,331.696 376.944,333.196 374.5,334C 372.307,333.43 370.307,333.764 368.5,335C 369.451,335.718 369.617,336.551 369,337.5C 368.163,335.993 366.996,335.493 365.5,336C 366.554,337.388 366.72,338.888 366,340.5C 363.685,334.668 361.018,334.335 358,339.5C 357.167,338.5 356.333,337.5 355.5,336.5C 354.289,337.274 354.289,338.107 355.5,339C 354.234,339.309 353.067,339.809 352,340.5C 348.791,337.35 347.457,333.684 348,329.5C 347.25,330.126 346.416,330.626 345.5,331C 346.654,331.914 346.487,332.747 345,333.5C 343.475,333.888 341.808,333.888 340,333.5C 338.99,336.448 337.157,337.114 334.5,335.5C 333.808,336.025 333.308,336.692 333,337.5C 332.047,335.408 330.714,335.075 329,336.5C 328.667,335.833 328.333,335.167 328,334.5C 326.929,338.041 325.263,338.708 323,336.5C 322.431,340.361 321.598,340.361 320.5,336.5C 317.961,337.115 315.461,337.782 313,338.5C 312,337.5 311,336.5 310,335.5C 306.699,335.499 303.199,335.666 299.5,336C 298.324,337.914 297.324,337.748 296.5,335.5C 294.833,336.833 293.167,336.833 291.5,335.5C 290.23,336.562 289.063,337.562 288,338.5C 287.612,337.572 286.945,336.905 286,336.5C 284.535,337.33 283.035,337.496 281.5,337C 282.711,336.107 282.711,335.274 281.5,334.5C 280.808,335.025 280.308,335.692 280,336.5C 279.131,333.237 277.797,332.904 276,335.5C 275.667,335.167 275.333,334.833 275,334.5C 274.667,327.5 274.333,320.5 274,313.5C 273.829,321.677 273.329,329.677 272.5,337.5C 272.5,329.5 272.5,321.5 272.5,313.5C 272.349,304.148 272.183,294.815 272,285.5C 272.001,288.687 272.834,291.52 274.5,294C 273.112,294.889 273.278,295.389 275,295.5C 277.211,295.761 279.377,295.094 281.5,293.5C 283.374,293.39 284.874,294.056 286,295.5C 287,292.833 288,292.833 289,295.5C 289.388,294.572 290.055,293.905 291,293.5C 292.676,296.16 294.343,296.16 296,293.5C 297.113,294.711 298.28,294.711 299.5,293.5C 301.167,296.167 302.833,296.167 304.5,293.5C 304.833,294.167 305.167,294.833 305.5,295.5C 307.193,293.721 309.193,293.221 311.5,294C 310.167,294.333 308.833,294.667 307.5,295C 311.677,294.889 316.011,295.056 320.5,295.5C 320.351,296.552 320.517,297.552 321,298.5C 321.853,296.875 322.853,296.542 324,297.5C 325.11,295.963 326.61,295.297 328.5,295.5C 329.231,303.031 332.897,305.031 339.5,301.5C 341.656,304.983 343.323,305.316 344.5,302.5C 345.5,303.833 346.5,303.833 347.5,302.5C 348.452,304.045 348.785,305.712 348.5,307.5C 349.822,307.67 350.989,307.337 352,306.5C 352.333,307.5 352.667,308.5 353,309.5C 354.113,308.24 354.28,307.073 353.5,306C 355.163,305.735 356.663,306.235 358,307.5C 359.067,306.809 360.234,306.309 361.5,306C 360.304,305.346 360.304,304.846 361.5,304.5C 363.636,305.472 364.803,307.139 365,309.5C 366,308.5 367,307.5 368,306.5C 369.049,307.517 370.216,307.684 371.5,307C 369.026,304.572 369.526,304.072 373,305.5C 373.483,304.552 373.649,303.552 373.5,302.5C 374.93,302.579 376.264,302.246 377.5,301.5C 379.059,302.447 380.726,303.113 382.5,303.5C 384.666,303.57 384.999,302.904 383.5,301.5C 384.727,300.41 385.56,299.076 386,297.5C 386.414,297.957 386.914,298.291 387.5,298.5C 389.098,296.027 390.598,296.027 392,298.5C 394,295.833 396,293.167 398,290.5C 398.667,291.833 399.333,291.833 400,290.5C 400.333,291.167 400.667,291.833 401,292.5C 401.862,290.913 402.529,289.246 403,287.5C 403.333,288.5 403.667,289.5 404,290.5C 404.98,289.019 406.147,287.685 407.5,286.5C 408.086,286.709 408.586,287.043 409,287.5C 409.456,286.256 408.956,285.423 407.5,285C 409.286,284.215 410.786,283.049 412,281.5C 413.904,282.102 415.737,281.602 417.5,280C 416.833,279.667 416.167,279.333 415.5,279C 416.749,277.176 417.915,277.343 419,279.5C 420.194,277.377 420.86,275.043 421,272.5C 423,273.167 425,273.833 427,274.5C 426.302,272.236 426.802,270.403 428.5,269C 430.167,269.333 431.833,269.667 433.5,270C 433.043,269.586 432.709,269.086 432.5,268.5C 433.522,267.646 434.355,266.646 435,265.5C 435.957,267.709 437.124,267.543 438.5,265C 437.655,263.442 438.321,262.442 440.5,262C 440.043,261.586 439.709,261.086 439.5,260.5C 440.689,259.571 442.022,259.238 443.5,259.5C 443.343,258.127 443.51,256.793 444,255.5C 445.16,257.797 446.16,257.464 447,254.5C 447.333,255.167 447.667,255.833 448,256.5C 448.333,255.167 448.667,253.833 449,252.5C 450.113,253.711 451.28,253.711 452.5,252.5C 453.24,247.961 456.24,245.461 461.5,245C 460.062,244.781 458.729,244.281 457.5,243.5C 459.392,243.611 461.392,242.944 463.5,241.5C 466.18,238.657 466.847,235.49 465.5,232C 466.109,230.052 466.776,228.218 467.5,226.5 Z"/></g>
<g><path style="opacity:0.879" fill="#b9b9b9" d="M 483.5,200.5 C 484.167,200.5 484.5,200.833 484.5,201.5C 487.401,220.436 488.068,239.436 486.5,258.5C 486.81,261.713 486.477,264.713 485.5,267.5C 485.939,245.118 485.273,222.784 483.5,200.5 Z"/></g>
<g><path style="opacity:0.999" fill="#cfcfcf" d="M 30.5,226.5 C 29.7908,244.8 31.1241,262.8 34.5,280.5C 41.2651,316.019 55.5985,348.019 77.5,376.5C 77.4142,377.496 77.7476,378.329 78.5,379C 77.0692,379.465 75.9025,380.299 75,381.5C 74.1376,379.913 73.4709,378.246 73,376.5C 72.6667,377.167 72.3333,377.833 72,378.5C 70.907,376.651 69.5737,374.984 68,373.5C 67.1072,374.711 66.2739,374.711 65.5,373.5C 66.0253,372.808 66.6919,372.308 67.5,372C 65.1487,369.647 62.482,367.647 59.5,366C 58.2986,365.097 57.4652,363.931 57,362.5C 56,362.5 55,362.5 54,362.5C 52.6667,360.5 51.3333,358.5 50,356.5C 49.2588,355.359 48.4255,355.359 47.5,356.5C 45.7988,355.198 44.6322,353.531 44,351.5C 43.6667,352.5 43.3333,353.5 43,354.5C 42.3444,352.014 40.8444,350.347 38.5,349.5C 37.3411,345.849 35.6744,342.515 33.5,339.5C 32.3263,338.486 31.6596,337.153 31.5,335.5C 25.3025,320.574 20.3025,305.24 16.5,289.5C 15.4588,284.545 14.7921,279.545 14.5,274.5C 13.8539,265.848 13.5205,257.182 13.5,248.5C 14.3138,246.369 14.8138,244.036 15,241.5C 19.2336,251.157 23.7336,259.991 28.5,268C 27.8333,268.333 27.1667,268.667 26.5,269C 28.5524,269.93 30.0524,271.43 31,273.5C 30.2931,262.875 29.7931,252.209 29.5,241.5C 29.5007,236.322 29.834,231.322 30.5,226.5 Z"/></g>
<g><path style="opacity:0.168" fill="#343434" d="M 491.5,226.5 C 491.433,227.959 491.766,229.292 492.5,230.5C 492.489,238.731 492.489,247.064 492.5,255.5C 491.878,258.37 491.211,261.204 490.5,264C 490.957,264.414 491.291,264.914 491.5,265.5C 491.023,268.836 490.023,272.002 488.5,275C 488.833,276 489.167,277 489.5,278C 488.269,281.332 486.936,284.665 485.5,288C 485.905,288.945 486.572,289.612 487.5,290C 484.398,291.614 484.064,293.447 486.5,295.5C 485.675,296.386 484.675,296.719 483.5,296.5C 481.998,302.84 480.331,309.173 478.5,315.5C 477.789,317.545 476.456,318.878 474.5,319.5C 474.833,317.5 475.167,315.5 475.5,313.5C 477.753,305.659 480.086,297.826 482.5,290C 484.202,282.587 485.202,275.087 485.5,267.5C 486.477,264.713 486.81,261.713 486.5,258.5C 487.458,258.047 488.292,257.381 489,256.5C 489.333,246.833 489.667,237.167 490,227.5C 490.383,226.944 490.883,226.611 491.5,226.5 Z"/></g>
<g><path style="opacity:0.149" fill="#090909" d="M 449.5,398.5 C 440.337,412.141 429.337,424.141 416.5,434.5C 420.58,428.914 425.247,423.747 430.5,419C 430.15,417.743 429.483,417.409 428.5,418C 381.367,466.891 323.7,492.391 255.5,494.5C 254.167,495.167 254.167,495.833 255.5,496.5C 261.024,497.453 266.524,497.12 272,495.5C 275.405,496.357 278.739,496.023 282,494.5C 284.342,495.178 286.676,494.845 289,493.5C 290.881,494.354 292.714,494.021 294.5,492.5C 295.417,493.127 296.417,493.461 297.5,493.5C 294.704,494.307 291.87,495.307 289,496.5C 286.534,495.89 284.034,496.224 281.5,497.5C 278.369,496.947 275.203,497.281 272,498.5C 271,498.167 270,497.833 269,497.5C 264.684,498.08 260.517,498.747 256.5,499.5C 251.833,499.5 247.167,499.5 242.5,499.5C 234.707,498.18 226.874,497.18 219,496.5C 218.228,496.645 217.561,496.978 217,497.5C 213.377,496.428 209.71,495.428 206,494.5C 204.251,495.553 202.751,495.22 201.5,493.5C 202.583,493.461 203.583,493.127 204.5,492.5C 208.14,493.248 211.807,494.248 215.5,495.5C 216.086,495.291 216.586,494.957 217,494.5C 220.261,496.023 223.595,496.357 227,495.5C 232.429,496.943 237.929,497.443 243.5,497C 244.602,494.609 243.936,494.109 241.5,495.5C 233.538,494.541 225.538,493.707 217.5,493C 196.744,489.394 176.411,484.061 156.5,477C 82.0198,444.187 33.5198,388.687 11,310.5C 4.60479,285.861 2.77145,260.861 5.5,235.5C 6.34647,246.01 7.1798,256.677 8,267.5C 8.12104,269.727 8.95438,271.56 10.5,273C 9.69194,273.308 9.02527,273.808 8.5,274.5C 9.2007,277.321 10.2007,279.988 11.5,282.5C 11.3918,283.442 11.0585,284.275 10.5,285C 13.6222,286.421 13.9556,288.087 11.5,290C 12.5742,290.739 13.2409,291.739 13.5,293C 11.8466,295.411 12.5133,296.578 15.5,296.5C 17.553,304.498 19.7197,312.498 22,320.5C 22.3333,320.167 22.6667,319.833 23,319.5C 24.1097,321.397 24.2764,323.23 23.5,325C 25.3008,325.317 25.6341,325.984 24.5,327C 26.4812,327.605 26.8146,328.605 25.5,330C 27.6709,331.174 28.6709,333.007 28.5,335.5C 29.5,335.5 30.5,335.5 31.5,335.5C 31.6596,337.153 32.3263,338.486 33.5,339.5C 34.1266,343.42 35.7933,346.753 38.5,349.5C 72.5162,414.331 125.183,455.497 196.5,473C 218.937,477.544 241.604,479.377 264.5,478.5C 270.726,478.612 276.726,477.946 282.5,476.5C 298.865,474.075 314.865,470.075 330.5,464.5C 333.542,464.267 336.208,463.267 338.5,461.5C 375.529,446.313 406.862,423.313 432.5,392.5C 444.477,378.569 454.477,363.236 462.5,346.5C 466.888,337.667 470.888,328.667 474.5,319.5C 476.456,318.878 477.789,317.545 478.5,315.5C 480.331,309.173 481.998,302.84 483.5,296.5C 484.675,296.719 485.675,296.386 486.5,295.5C 484.064,293.447 484.398,291.614 487.5,290C 486.572,289.612 485.905,288.945 485.5,288C 486.936,284.665 488.269,281.332 489.5,278C 489.167,277 488.833,276 488.5,275C 490.023,272.002 491.023,268.836 491.5,265.5C 491.291,264.914 490.957,264.414 490.5,264C 491.211,261.204 491.878,258.37 492.5,255.5C 492.489,247.064 492.489,238.731 492.5,230.5C 494.045,229.77 494.878,228.437 495,226.5C 495.667,239.167 495.667,251.833 495,264.5C 490.821,319.817 470.988,368.484 435.5,410.5C 435.667,410.833 435.833,411.167 436,411.5C 440.015,408.484 443.348,404.817 446,400.5C 446.816,399.177 447.983,398.511 449.5,398.5 Z"/></g>
<g><path style="opacity:1" fill="#8c8c8c" d="M 235.5,296.5 C 235.5,297.167 235.5,297.833 235.5,298.5C 235.722,305.835 236.056,313.169 236.5,320.5C 236.689,327.696 235.689,334.696 233.5,341.5C 225.423,360.388 211.09,371.221 190.5,374C 150.957,373.553 126.624,354.053 117.5,315.5C 117.314,308.119 117.814,300.786 119,293.5C 120.034,299.697 122.7,301.03 127,297.5C 127.901,300.071 129.234,302.404 131,304.5C 132.049,303.483 133.216,303.316 134.5,304C 133.549,304.718 133.383,305.551 134,306.5C 135.268,306.384 136.602,306.051 138,305.5C 139.61,307.731 141.443,309.731 143.5,311.5C 145.042,310.253 146.542,310.253 148,311.5C 148.909,307.46 149.909,303.46 151,299.5C 152.891,303.37 153.725,303.37 153.5,299.5C 156.466,298.301 159.132,296.634 161.5,294.5C 164.045,295.25 166.545,294.916 169,293.5C 169.991,294.939 171.324,295.939 173,296.5C 177.304,295.831 181.804,295.665 186.5,296C 187.126,296.75 187.626,297.584 188,298.5C 188.582,295.332 189.582,294.999 191,297.5C 195.325,297.916 199.825,297.416 204.5,296C 203.376,296.249 202.376,296.749 201.5,297.5C 203.841,298.712 206.007,298.378 208,296.5C 208.333,296.833 208.667,297.167 209,297.5C 209.308,296.692 209.808,296.025 210.5,295.5C 210.109,296.891 210.942,297.891 213,298.5C 213.617,297.551 213.451,296.718 212.5,296C 216.751,294.622 220.751,294.788 224.5,296.5C 226.482,295.03 228.148,295.364 229.5,297.5C 230.427,295.233 232.427,294.9 235.5,296.5 Z"/></g>
<g><path style="opacity:1" fill="#868686" d="M 460.5,297.5 C 459.833,301.167 459.167,304.833 458.5,308.5C 453.083,320.997 447.417,333.33 441.5,345.5C 440.724,343.026 439.224,342.359 437,343.5C 434.357,339.495 432.69,339.828 432,344.5C 432.837,342.993 434.004,342.493 435.5,343C 433.232,344.957 431.232,347.123 429.5,349.5C 428.201,348.91 427.368,347.91 427,346.5C 426.667,347.833 426.333,349.167 426,350.5C 425.333,349.167 424.333,348.167 423,347.5C 422.493,348.996 422.993,350.163 424.5,351C 424,351.5 423.5,352 423,352.5C 422,351.5 421,350.5 420,349.5C 419.323,351.689 418.156,352.022 416.5,350.5C 415.396,351.631 415.729,352.465 417.5,353C 416.809,354.067 416.309,355.234 416,356.5C 414.658,353.424 412.491,353.091 409.5,355.5C 408.694,357.776 407.694,360.109 406.5,362.5C 406.306,360.958 405.139,359.625 403,358.5C 401.513,359.253 401.346,360.086 402.5,361C 399.442,364.111 396.275,364.944 393,363.5C 392.664,365.074 391.831,366.408 390.5,367.5C 390.511,366.559 390.011,365.892 389,365.5C 387.775,365.862 386.609,366.362 385.5,367C 386.167,367.333 386.833,367.667 387.5,368C 387.017,371.462 385.85,371.962 384,369.5C 382.796,370.471 382.296,371.471 382.5,372.5C 381.522,372.023 380.689,371.357 380,370.5C 377,373.167 374,373.167 371,370.5C 367.735,373.425 364.902,376.758 362.5,380.5C 360.663,376.787 359.163,376.787 358,380.5C 356.561,378.725 355.561,376.725 355,374.5C 354.033,375.678 353.533,377.011 353.5,378.5C 352.28,377.289 351.113,377.289 350,378.5C 348.711,375.649 348.211,372.649 348.5,369.5C 346.876,369.36 345.71,370.027 345,371.5C 344.646,369.193 343.646,368.859 342,370.5C 341.5,370.167 341,369.833 340.5,369.5C 340.846,368.304 341.346,368.304 342,369.5C 342.309,368.234 342.809,367.067 343.5,366C 341.544,366.222 339.71,367.055 338,368.5C 337.28,370.112 337.446,371.612 338.5,373C 336.919,373.707 335.419,374.54 334,375.5C 332.984,374.366 332.317,374.699 332,376.5C 330.956,375.377 330.29,374.044 330,372.5C 328.705,378.701 326.372,379.034 323,373.5C 322.026,375.878 321.359,375.544 321,372.5C 320.535,373.931 319.701,375.097 318.5,376C 319.451,376.718 319.617,377.551 319,378.5C 318,377.167 317,377.167 316,378.5C 314.887,377.24 314.72,376.073 315.5,375C 313.865,374.46 312.532,374.96 311.5,376.5C 310.284,375.998 309.117,375.665 308,375.5C 307.105,378.767 305.272,379.434 302.5,377.5C 302.798,374.664 302.131,374.164 300.5,376C 300.833,376.333 301.167,376.667 301.5,377C 300.119,378.625 298.452,379.792 296.5,380.5C 295.833,380.333 295.167,380.167 294.5,380C 295.451,379.282 295.617,378.449 295,377.5C 293.739,380.82 292.072,381.154 290,378.5C 289,379.167 288,379.833 287,380.5C 286.581,379.328 285.915,378.328 285,377.5C 283.6,382.091 281.1,382.757 277.5,379.5C 275.997,380.59 275.664,381.757 276.5,383C 274.536,383.624 272.869,383.124 271.5,381.5C 272.46,380.188 272.294,378.854 271,377.5C 268.501,378.764 266.501,381.097 265,384.5C 262.166,382.744 261.666,380.411 263.5,377.5C 263.444,376.263 262.944,375.263 262,374.5C 262.553,376.944 261.719,379.111 259.5,381C 259.833,381.333 260.167,381.667 260.5,382C 259.5,382.5 258.5,383 257.5,383.5C 256.289,382.726 256.289,381.893 257.5,381C 256.956,380.283 256.289,379.783 255.5,379.5C 264.49,366.908 270.156,352.908 272.5,337.5C 273.329,329.677 273.829,321.677 274,313.5C 274.333,320.5 274.667,327.5 275,334.5C 275.333,334.833 275.667,335.167 276,335.5C 277.797,332.904 279.131,333.237 280,336.5C 280.308,335.692 280.808,335.025 281.5,334.5C 282.711,335.274 282.711,336.107 281.5,337C 283.035,337.496 284.535,337.33 286,336.5C 286.945,336.905 287.612,337.572 288,338.5C 289.063,337.562 290.23,336.562 291.5,335.5C 293.167,336.833 294.833,336.833 296.5,335.5C 297.324,337.748 298.324,337.914 299.5,336C 303.199,335.666 306.699,335.499 310,335.5C 311,336.5 312,337.5 313,338.5C 315.461,337.782 317.961,337.115 320.5,336.5C 321.598,340.361 322.431,340.361 323,336.5C 325.263,338.708 326.929,338.041 328,334.5C 328.333,335.167 328.667,335.833 329,336.5C 330.714,335.075 332.047,335.408 333,337.5C 333.308,336.692 333.808,336.025 334.5,335.5C 337.157,337.114 338.99,336.448 340,333.5C 341.808,333.888 343.475,333.888 345,333.5C 346.487,332.747 346.654,331.914 345.5,331C 346.416,330.626 347.25,330.126 348,329.5C 347.457,333.684 348.791,337.35 352,340.5C 353.067,339.809 354.234,339.309 355.5,339C 354.289,338.107 354.289,337.274 355.5,336.5C 356.333,337.5 357.167,338.5 358,339.5C 361.018,334.335 363.685,334.668 366,340.5C 366.72,338.888 366.554,337.388 365.5,336C 366.996,335.493 368.163,335.993 369,337.5C 369.617,336.551 369.451,335.718 368.5,335C 370.307,333.764 372.307,333.43 374.5,334C 376.944,333.196 378.778,331.696 380,329.5C 380.837,331.007 382.004,331.507 383.5,331C 380.725,328.019 381.225,326.853 385,327.5C 386.137,326.636 387.47,325.636 389,324.5C 390.101,326.394 391.434,327.061 393,326.5C 393.483,325.552 393.649,324.552 393.5,323.5C 395.467,323.261 397.301,323.594 399,324.5C 401.234,323.109 403.567,321.109 406,318.5C 405.737,317.049 405.904,315.716 406.5,314.5C 407.167,315.167 407.833,315.833 408.5,316.5C 408.911,315.738 409.077,314.738 409,313.5C 410.494,314.747 411.994,314.747 413.5,313.5C 414.853,312.315 416.02,310.981 417,309.5C 417.667,310.167 418.333,310.833 419,311.5C 420.117,310.051 420.784,308.384 421,306.5C 424.109,310.443 425.275,309.943 424.5,305C 425.784,304.316 426.951,304.483 428,305.5C 429.667,303.372 431.834,302.039 434.5,301.5C 433.833,300.833 433.167,300.167 432.5,299.5C 433.262,299.089 434.262,298.923 435.5,299C 436.191,297.933 436.691,296.766 437,295.5C 438.008,295.982 439.175,296.148 440.5,296C 439.549,296.718 439.383,297.551 440,298.5C 441.115,297 441.948,295.333 442.5,293.5C 445.126,292.707 446.96,291.04 448,288.5C 448.308,289.308 448.808,289.975 449.5,290.5C 451.422,289.04 452.089,287.373 451.5,285.5C 454.592,285.749 456.259,284.083 456.5,280.5C 458.512,279.986 460.512,279.82 462.5,280C 462.206,285.709 461.539,291.542 460.5,297.5 Z"/></g>
<g><path style="opacity:1" fill="#929292" d="M 234.5,284.5 C 234.646,288.519 234.979,292.519 235.5,296.5C 232.427,294.9 230.427,295.233 229.5,297.5C 228.148,295.364 226.482,295.03 224.5,296.5C 220.751,294.788 216.751,294.622 212.5,296C 213.451,296.718 213.617,297.551 213,298.5C 210.942,297.891 210.109,296.891 210.5,295.5C 209.808,296.025 209.308,296.692 209,297.5C 208.667,297.167 208.333,296.833 208,296.5C 206.007,298.378 203.841,298.712 201.5,297.5C 202.376,296.749 203.376,296.249 204.5,296C 199.825,297.416 195.325,297.916 191,297.5C 189.582,294.999 188.582,295.332 188,298.5C 187.626,297.584 187.126,296.75 186.5,296C 181.804,295.665 177.304,295.831 173,296.5C 171.324,295.939 169.991,294.939 169,293.5C 166.545,294.916 164.045,295.25 161.5,294.5C 159.132,296.634 156.466,298.301 153.5,299.5C 153.725,303.37 152.891,303.37 151,299.5C 149.909,303.46 148.909,307.46 148,311.5C 146.542,310.253 145.042,310.253 143.5,311.5C 141.443,309.731 139.61,307.731 138,305.5C 136.602,306.051 135.268,306.384 134,306.5C 133.383,305.551 133.549,304.718 134.5,304C 133.216,303.316 132.049,303.483 131,304.5C 129.234,302.404 127.901,300.071 127,297.5C 122.7,301.03 120.034,299.697 119,293.5C 117.814,300.786 117.314,308.119 117.5,315.5C 114.85,302.079 117.017,289.412 124,277.5C 124.708,276.619 125.542,275.953 126.5,275.5C 128.113,275.056 129.28,274.056 130,272.5C 131.418,275.001 132.418,274.668 133,271.5C 134,272.833 135,272.833 136,271.5C 136.333,272.5 136.667,273.5 137,274.5C 138.333,273.167 139.667,271.833 141,270.5C 141.333,271.167 141.667,271.833 142,272.5C 144.069,271.736 146.236,271.236 148.5,271C 149.667,270.5 150.5,269.667 151,268.5C 151.414,268.957 151.914,269.291 152.5,269.5C 154.364,268.007 156.53,267.34 159,267.5C 163.428,267.844 167.762,268.511 172,269.5C 172.333,268.833 172.667,268.167 173,267.5C 183.989,268.705 194.823,268.705 205.5,267.5C 208.089,269.157 210.756,269.491 213.5,268.5C 214.5,269.167 215.5,269.833 216.5,270.5C 216.833,269.833 217.167,269.167 217.5,268.5C 220.08,270.994 222.747,270.994 225.5,268.5C 227.683,270.059 229.849,270.726 232,270.5C 232.354,275.389 233.187,280.056 234.5,284.5 Z"/></g>
<g><path style="opacity:1" fill="#999999" d="M 234.5,284.5 C 233.187,280.056 232.354,275.389 232,270.5C 229.849,270.726 227.683,270.059 225.5,268.5C 222.747,270.994 220.08,270.994 217.5,268.5C 217.167,269.167 216.833,269.833 216.5,270.5C 215.5,269.833 214.5,269.167 213.5,268.5C 210.756,269.491 208.089,269.157 205.5,267.5C 194.823,268.705 183.989,268.705 173,267.5C 172.667,268.167 172.333,268.833 172,269.5C 167.762,268.511 163.428,267.844 159,267.5C 156.53,267.34 154.364,268.007 152.5,269.5C 151.914,269.291 151.414,268.957 151,268.5C 150.5,269.667 149.667,270.5 148.5,271C 146.236,271.236 144.069,271.736 142,272.5C 141.667,271.833 141.333,271.167 141,270.5C 139.667,271.833 138.333,273.167 137,274.5C 136.667,273.5 136.333,272.5 136,271.5C 135,272.833 134,272.833 133,271.5C 132.418,274.668 131.418,275.001 130,272.5C 129.28,274.056 128.113,275.056 126.5,275.5C 129.228,271.263 132.561,267.429 136.5,264C 140.627,262.401 144.294,260.067 147.5,257C 158.927,253.647 170.594,252.647 182.5,254C 199.561,254.928 216.561,256.428 233.5,258.5C 233.833,267.167 234.167,275.833 234.5,284.5 Z"/></g>
<g><path style="opacity:1" fill="#d7d7d7" d="M 235.5,298.5 C 236.309,300.292 236.809,302.292 237,304.5C 237.667,314.5 237.667,324.5 237,334.5C 236.578,336.355 236.078,338.189 235.5,340C 235.164,341.03 234.497,341.53 233.5,341.5C 235.689,334.696 236.689,327.696 236.5,320.5C 236.056,313.169 235.722,305.835 235.5,298.5 Z"/></g>
<g><path style="opacity:1" fill="#d8d8d8" d="M 223.5,317.5 C 212.136,317.257 200.802,317.59 189.5,318.5C 195.175,316.4 201.175,315.4 207.5,315.5C 213.056,315.528 218.389,316.194 223.5,317.5 Z"/></g>
<g><path style="opacity:1" fill="#fcfcfc" d="M 189.5,318.5 C 200.802,317.59 212.136,317.257 223.5,317.5C 224.5,317.5 225.5,317.5 226.5,317.5C 227.434,329.712 223.934,340.378 216,349.5C 200.895,364.447 183.395,367.614 163.5,359C 144.52,350.821 133.354,336.655 130,316.5C 147.986,329.814 166.486,330.647 185.5,319C 186.793,318.51 188.127,318.343 189.5,318.5 Z"/></g>
<g><path style="opacity:0.706" fill="#a8a8a8" d="M 475.5,313.5 C 475.167,315.5 474.833,317.5 474.5,319.5C 470.888,328.667 466.888,337.667 462.5,346.5C 463.604,342.89 464.604,339.224 465.5,335.5C 469.034,328.221 472.367,320.888 475.5,313.5 Z"/></g>
<g><path style="opacity:1" fill="#838383" d="M 81.5,314.5 C 85.4701,335.773 94.3035,354.773 108,371.5C 128.333,394.833 154,407.499 185,409.5C 213.384,410.548 236.884,400.548 255.5,379.5C 256.289,379.783 256.956,380.283 257.5,381C 256.289,381.893 256.289,382.726 257.5,383.5C 258.5,383 259.5,382.5 260.5,382C 260.167,381.667 259.833,381.333 259.5,381C 261.719,379.111 262.553,376.944 262,374.5C 262.944,375.263 263.444,376.263 263.5,377.5C 261.666,380.411 262.166,382.744 265,384.5C 266.501,381.097 268.501,378.764 271,377.5C 272.294,378.854 272.46,380.188 271.5,381.5C 272.869,383.124 274.536,383.624 276.5,383C 275.664,381.757 275.997,380.59 277.5,379.5C 281.1,382.757 283.6,382.091 285,377.5C 285.915,378.328 286.581,379.328 287,380.5C 288,379.833 289,379.167 290,378.5C 292.072,381.154 293.739,380.82 295,377.5C 295.617,378.449 295.451,379.282 294.5,380C 295.167,380.167 295.833,380.333 296.5,380.5C 298.452,379.792 300.119,378.625 301.5,377C 301.167,376.667 300.833,376.333 300.5,376C 302.131,374.164 302.798,374.664 302.5,377.5C 305.272,379.434 307.105,378.767 308,375.5C 309.117,375.665 310.284,375.998 311.5,376.5C 312.532,374.96 313.865,374.46 315.5,375C 314.72,376.073 314.887,377.24 316,378.5C 317,377.167 318,377.167 319,378.5C 319.617,377.551 319.451,376.718 318.5,376C 319.701,375.097 320.535,373.931 321,372.5C 321.359,375.544 322.026,375.878 323,373.5C 326.372,379.034 328.705,378.701 330,372.5C 330.29,374.044 330.956,375.377 332,376.5C 332.317,374.699 332.984,374.366 334,375.5C 335.419,374.54 336.919,373.707 338.5,373C 337.446,371.612 337.28,370.112 338,368.5C 339.71,367.055 341.544,366.222 343.5,366C 342.809,367.067 342.309,368.234 342,369.5C 341.346,368.304 340.846,368.304 340.5,369.5C 341,369.833 341.5,370.167 342,370.5C 343.646,368.859 344.646,369.193 345,371.5C 345.71,370.027 346.876,369.36 348.5,369.5C 348.211,372.649 348.711,375.649 350,378.5C 351.113,377.289 352.28,377.289 353.5,378.5C 353.533,377.011 354.033,375.678 355,374.5C 355.561,376.725 356.561,378.725 358,380.5C 359.163,376.787 360.663,376.787 362.5,380.5C 364.902,376.758 367.735,373.425 371,370.5C 374,373.167 377,373.167 380,370.5C 380.689,371.357 381.522,372.023 382.5,372.5C 382.296,371.471 382.796,370.471 384,369.5C 385.85,371.962 387.017,371.462 387.5,368C 386.833,367.667 386.167,367.333 385.5,367C 386.609,366.362 387.775,365.862 389,365.5C 390.011,365.892 390.511,366.559 390.5,367.5C 391.831,366.408 392.664,365.074 393,363.5C 396.275,364.944 399.442,364.111 402.5,361C 401.346,360.086 401.513,359.253 403,358.5C 405.139,359.625 406.306,360.958 406.5,362.5C 407.694,360.109 408.694,357.776 409.5,355.5C 412.491,353.091 414.658,353.424 416,356.5C 416.309,355.234 416.809,354.067 417.5,353C 415.729,352.465 415.396,351.631 416.5,350.5C 418.156,352.022 419.323,351.689 420,349.5C 421,350.5 422,351.5 423,352.5C 423.5,352 424,351.5 424.5,351C 422.993,350.163 422.493,348.996 423,347.5C 424.333,348.167 425.333,349.167 426,350.5C 426.333,349.167 426.667,347.833 427,346.5C 427.368,347.91 428.201,348.91 429.5,349.5C 431.232,347.123 433.232,344.957 435.5,343C 434.004,342.493 432.837,342.993 432,344.5C 432.69,339.828 434.357,339.495 437,343.5C 439.224,342.359 440.724,343.026 441.5,345.5C 421.26,381.74 393.26,410.407 357.5,431.5C 333.575,444.364 308.242,453.03 281.5,457.5C 265.892,459.084 250.225,459.751 234.5,459.5C 207.519,456.871 181.519,450.371 156.5,440C 125.904,424.248 99.5709,403.081 77.5,376.5C 55.5985,348.019 41.2651,316.019 34.5,280.5C 34.3354,277.482 34.502,274.482 35,271.5C 37.1469,270.524 39.3136,270.691 41.5,272C 39.0259,274.428 39.5259,274.928 43,273.5C 43.6172,274.449 43.4506,275.282 42.5,276C 44.0368,277.11 44.7035,278.61 44.5,280.5C 47.0621,281.18 49.7287,281.347 52.5,281C 50.3982,282.73 50.5649,284.563 53,286.5C 53.3076,285.692 53.8076,285.025 54.5,284.5C 55.5,285.5 56.5,286.5 57.5,287.5C 56.3707,289.529 56.8707,289.863 59,288.5C 60.1354,291.707 62.1354,293.041 65,292.5C 66.6437,295.311 68.8103,297.644 71.5,299.5C 72.086,299.291 72.586,298.957 73,298.5C 73.3333,299.833 73.6667,301.167 74,302.5C 75.5695,302.33 77.4028,301.997 79.5,301.5C 78.4915,305.432 78.6582,309.432 80,313.5C 80.3826,314.056 80.8826,314.389 81.5,314.5 Z"/></g>
<g><path style="opacity:0.999" fill="#cfcfcf" d="M 485.5,267.5 C 485.202,275.087 484.202,282.587 482.5,290C 480.086,297.826 477.753,305.659 475.5,313.5C 472.367,320.888 469.034,328.221 465.5,335.5C 464.604,339.224 463.604,342.89 462.5,346.5C 454.477,363.236 444.477,378.569 432.5,392.5C 431.778,392.082 431.278,391.416 431,390.5C 429.001,392.493 427.501,394.827 426.5,397.5C 425.5,396.167 424.5,396.167 423.5,397.5C 419.742,400.689 416.075,403.856 412.5,407C 412.833,407.333 413.167,407.667 413.5,408C 410.545,408.392 408.378,409.892 407,412.5C 406.667,412.167 406.333,411.833 406,411.5C 404.494,414.474 402.828,414.807 401,412.5C 401.141,416.831 399.808,417.498 397,414.5C 396.691,415.766 396.191,416.933 395.5,418C 396.167,418.333 396.833,418.667 397.5,419C 395.269,420.147 392.935,421.147 390.5,422C 390.833,422.333 391.167,422.667 391.5,423C 389.613,423.163 388.113,422.329 387,420.5C 382.953,422.925 379.453,425.092 376.5,427C 376.833,427.333 377.167,427.667 377.5,428C 375.324,428.163 373.491,428.996 372,430.5C 371.667,430.167 371.333,429.833 371,429.5C 370.641,432.544 369.974,432.878 369,430.5C 368.333,433.167 367.667,433.167 367,430.5C 366.667,431.833 366.333,433.167 366,434.5C 365.333,431.833 364.667,431.833 364,434.5C 363.667,433.833 363.333,433.167 363,432.5C 362.365,436.102 361.032,436.768 359,434.5C 356.236,437.257 353.07,438.257 349.5,437.5C 352.685,436.026 355.351,434.026 357.5,431.5C 393.26,410.407 421.26,381.74 441.5,345.5C 447.417,333.33 453.083,320.997 458.5,308.5C 459.612,309.372 460.946,309.372 462.5,308.5C 464.195,306.634 466.195,305.134 468.5,304C 468.167,303.667 467.833,303.333 467.5,303C 469.569,302.676 469.902,301.842 468.5,300.5C 471.205,296.929 473.538,293.096 475.5,289C 475.167,288.667 474.833,288.333 474.5,288C 479.268,285.744 481.434,281.91 481,276.5C 481.333,278.5 481.667,280.5 482,282.5C 482.333,281.833 482.667,281.167 483,280.5C 483.272,275.924 484.105,271.591 485.5,267.5 Z"/></g>
<g><path style="opacity:0.333" fill="#7a7a7a" d="M 33.5,339.5 C 35.6744,342.515 37.3411,345.849 38.5,349.5C 35.7933,346.753 34.1266,343.42 33.5,339.5 Z"/></g>
<g><path style="opacity:0.999" fill="#c6c6c6" d="M 38.5,349.5 C 40.8444,350.347 42.3444,352.014 43,354.5C 43.3333,353.5 43.6667,352.5 44,351.5C 44.6322,353.531 45.7988,355.198 47.5,356.5C 48.4255,355.359 49.2588,355.359 50,356.5C 51.3333,358.5 52.6667,360.5 54,362.5C 55,362.5 56,362.5 57,362.5C 57.4652,363.931 58.2986,365.097 59.5,366C 62.482,367.647 65.1487,369.647 67.5,372C 66.6919,372.308 66.0253,372.808 65.5,373.5C 66.2739,374.711 67.1072,374.711 68,373.5C 69.5737,374.984 70.907,376.651 72,378.5C 72.3333,377.833 72.6667,377.167 73,376.5C 73.4709,378.246 74.1376,379.913 75,381.5C 75.9025,380.299 77.0692,379.465 78.5,379C 77.7476,378.329 77.4142,377.496 77.5,376.5C 99.5709,403.081 125.904,424.248 156.5,440C 181.519,450.371 207.519,456.871 234.5,459.5C 244.325,460.658 254.325,460.825 264.5,460C 270.4,459.79 276.066,458.956 281.5,457.5C 308.242,453.03 333.575,444.364 357.5,431.5C 355.351,434.026 352.685,436.026 349.5,437.5C 353.07,438.257 356.236,437.257 359,434.5C 361.032,436.768 362.365,436.102 363,432.5C 363.333,433.167 363.667,433.833 364,434.5C 364.667,431.833 365.333,431.833 366,434.5C 366.333,433.167 366.667,431.833 367,430.5C 367.667,433.167 368.333,433.167 369,430.5C 369.974,432.878 370.641,432.544 371,429.5C 371.333,429.833 371.667,430.167 372,430.5C 373.491,428.996 375.324,428.163 377.5,428C 377.167,427.667 376.833,427.333 376.5,427C 379.453,425.092 382.953,422.925 387,420.5C 388.113,422.329 389.613,423.163 391.5,423C 391.167,422.667 390.833,422.333 390.5,422C 392.935,421.147 395.269,420.147 397.5,419C 396.833,418.667 396.167,418.333 395.5,418C 396.191,416.933 396.691,415.766 397,414.5C 399.808,417.498 401.141,416.831 401,412.5C 402.828,414.807 404.494,414.474 406,411.5C 406.333,411.833 406.667,412.167 407,412.5C 408.378,409.892 410.545,408.392 413.5,408C 413.167,407.667 412.833,407.333 412.5,407C 416.075,403.856 419.742,400.689 423.5,397.5C 424.5,396.167 425.5,396.167 426.5,397.5C 427.501,394.827 429.001,392.493 431,390.5C 431.278,391.416 431.778,392.082 432.5,392.5C 406.862,423.313 375.529,446.313 338.5,461.5C 335.458,461.733 332.792,462.733 330.5,464.5C 314.865,470.075 298.865,474.075 282.5,476.5C 276.288,476.523 270.288,477.19 264.5,478.5C 241.604,479.377 218.937,477.544 196.5,473C 125.183,455.497 72.5162,414.331 38.5,349.5 Z"/></g>
<g><path style="opacity:1" fill="#a6a6a6" d="M 281.5,457.5 C 276.066,458.956 270.4,459.79 264.5,460C 254.325,460.825 244.325,460.658 234.5,459.5C 250.225,459.751 265.892,459.084 281.5,457.5 Z"/></g>
<g><path style="opacity:0.322" fill="#6a6a6a" d="M 338.5,461.5 C 336.208,463.267 333.542,464.267 330.5,464.5C 332.792,462.733 335.458,461.733 338.5,461.5 Z"/></g>
<g><path style="opacity:0.008" fill="#141414" d="M 416.5,434.5 C 382.489,466.659 342.822,486.326 297.5,493.5C 296.417,493.461 295.417,493.127 294.5,492.5C 292.714,494.021 290.881,494.354 289,493.5C 286.676,494.845 284.342,495.178 282,494.5C 278.739,496.023 275.405,496.357 272,495.5C 266.524,497.12 261.024,497.453 255.5,496.5C 254.167,495.833 254.167,495.167 255.5,494.5C 323.7,492.391 381.367,466.891 428.5,418C 429.483,417.409 430.15,417.743 430.5,419C 425.247,423.747 420.58,428.914 416.5,434.5 Z"/></g>
<g><path style="opacity:0.267" fill="#444444" d="M 282.5,476.5 C 276.726,477.946 270.726,478.612 264.5,478.5C 270.288,477.19 276.288,476.523 282.5,476.5 Z"/></g>
</svg>
